999
dxfrw 0.6.3
  0
SECTION
  2
HEADER
  9
$ACADVER
  1
AC1021
  9
$DWGCODEPAGE
  3
ANSI_1252
  9
$INSBASE
 10
0
 20
0
 30
0
  9
$EXTMIN
 10
-338.6250000000001
 20
-42.49770794663704
 30
0
  9
$EXTMAX
 10
1940
 20
2600
 30
0
  9
$LIMMIN
 10
0
 20
0
  9
$LIMMAX
 10
420
 20
297
  9
$ORTHOMODE
 70
    0
  9
$REGENMODE
 70
    1
  9
$FILLMODE
 70
    1
  9
$QTEXTMODE
 70
    0
  9
$MIRRTEXT
 70
    0
  9
$LTSCALE
 40
1
  9
$ATTMODE
 70
    0
  9
$TEXTSIZE
 40
2.5
  9
$TRACEWID
 40
15.68
  9
$TEXTSTYLE
  7
STANDARD
  9
$CLAYER
  8
length
  9
$CELTYPE
  6
BYLAYER
  9
$CECOLOR
 62
  256
  9
$CELTSCALE
 40
1
  9
$DISPSILH
 70
    0
  9
$DIMSCALE
 40
1
  9
$DIMASZ
 40
15
  9
$DIMEXO
 40
0.625
  9
$DIMDLI
 40
3.75
  9
$DIMRND
 40
0
  9
$DIMDLE
 40
0
  9
$DIMEXE
 40
1.25
  9
$DIMTP
 40
0
  9
$DIMTM
 40
0
  9
$DIMTXT
 40
20
  9
$DIMCEN
 40
2.5
  9
$DIMTSZ
 40
0
  9
$DIMTOL
 70
    0
  9
$DIMLIM
 70
    0
  9
$DIMTIH
 70
    0
  9
$DIMTOH
 70
    0
  9
$DIMSE1
 70
    0
  9
$DIMSE2
 70
    0
  9
$DIMTAD
 70
    1
  9
$DIMZIN
 70
    1
  9
$DIMBLK
  1

  9
$DIMASO
 70
    1
  9
$DIMSHO
 70
    1
  9
$DIMPOST
  1

  9
$DIMAPOST
  1

  9
$DIMALT
 70
    0
  9
$DIMALTD
 70
    3
  9
$DIMALTF
 40
0.03937
  9
$DIMLFAC
 40
1
  9
$DIMTOFL
 70
    1
  9
$DIMTVP
 40
0
  9
$DIMTIX
 70
    0
  9
$DIMSOXD
 70
    0
  9
$DIMSAH
 70
    0
  9
$DIMBLK1
  1

  9
$DIMBLK2
  1

  9
$DIMSTYLE
  2
STANDARD
  9
$DIMCLRD
 70
    0
  9
$DIMCLRE
 70
    0
  9
$DIMCLRT
 70
    0
  9
$DIMTFAC
 40
1
  9
$DIMGAP
 40
0.625
  9
$DIMJUST
 70
    0
  9
$DIMSD1
 70
    0
  9
$DIMSD2
 70
    0
  9
$DIMTOLJ
 70
    0
  9
$DIMTZIN
 70
    8
  9
$DIMALTZ
 70
    0
  9
$DIMALTTZ
 70
    0
  9
$DIMUPT
 70
    0
  9
$DIMDEC
 70
    0
  9
$DIMTDEC
 70
    2
  9
$DIMALTU
 70
    2
  9
$DIMALTTD
 70
    3
  9
$DIMTXSTY
  7
standard
  9
$DIMAUNIT
 70
    0
  9
$DIMADEC
 70
    2
  9
$DIMALTRND
 40
0
  9
$DIMAZIN
 70
    0
  9
$DIMDSEP
 70
    0
  9
$DIMATFIT
 70
    3
  9
$DIMFRAC
 70
    0
  9
$DIMLDRBLK
  1
STANDARD
  9
$DIMLUNIT
 70
    2
  9
$DIMLWD
 70
   -2
  9
$DIMLWE
 70
   -2
  9
$DIMTMOVE
 70
    0
  9
$DIMFXL
 40
1
  9
$DIMFXLON
 70
    0
  9
$DIMJOGANG
 40
0.7854
  9
$DIMTFILL
 70
    0
  9
$DIMTFILLCLR
 70
    0
  9
$DIMARCSYM
 70
    0
  9
$DIMLTYPE
  6

  9
$DIMLTEX1
  6

  9
$DIMLTEX2
  6

  9
$LUNITS
 70
    2
  9
$LUPREC
 70
    4
  9
$SKETCHINC
 40
1
  9
$FILLETRAD
 40
0
  9
$AUNITS
 70
    0
  9
$AUPREC
 70
    2
  9
$MENU
  1
.
  9
$ELEVATION
 40
0
  9
$PELEVATION
 40
0
  9
$THICKNESS
 40
0
  9
$LIMCHECK
 70
    0
  9
$CHAMFERA
 40
0
  9
$CHAMFERB
 40
0
  9
$CHAMFERC
 40
0
  9
$CHAMFERD
 40
0
  9
$SKPOLY
 70
    0
  9
$USRTIMER
 70
    1
  9
$ANGBASE
 50
0
  9
$ANGDIR
 70
    0
  9
$PDMODE
 70
   34
  9
$PDSIZE
 40
0
  9
$PLINEWID
 40
0
  9
$SPLFRAME
 70
    0
  9
$SPLINETYPE
 70
    2
  9
$SPLINESEGS
 70
    8
  9
$HANDSEED
  5
20000
  9
$SURFTAB1
 70
    6
  9
$SURFTAB2
 70
    6
  9
$SURFTYPE
 70
    6
  9
$SURFU
 70
    6
  9
$SURFV
 70
    6
  9
$UCSBASE
  2

  9
$UCSNAME
  2

  9
$UCSORG
 10
0
 20
0
 30
0
  9
$UCSXDIR
 10
1
 20
0
 30
0
  9
$UCSYDIR
 10
0
 20
1
 30
0
  9
$UCSORTHOREF
  2

  9
$UCSORTHOVIEW
 70
    0
  9
$UCSORGTOP
 10
0
 20
0
 30
0
  9
$UCSORGBOTTOM
 10
0
 20
0
 30
0
  9
$UCSORGLEFT
 10
0
 20
0
 30
0
  9
$UCSORGRIGHT
 10
0
 20
0
 30
0
  9
$UCSORGFRONT
 10
0
 20
0
 30
0
  9
$UCSORGBACK
 10
0
 20
0
 30
0
  9
$PUCSBASE
  2

  9
$PUCSNAME
  2

  9
$PUCSORG
 10
0
 20
0
 30
0
  9
$PUCSXDIR
 10
1
 20
0
 30
0
  9
$PUCSYDIR
 10
0
 20
1
 30
0
  9
$PUCSORTHOREF
  2

  9
$PUCSORTHOVIEW
 70
    0
  9
$PUCSORGTOP
 10
0
 20
0
 30
0
  9
$PUCSORGBOTTOM
 10
0
 20
0
 30
0
  9
$PUCSORGLEFT
 10
0
 20
0
 30
0
  9
$PUCSORGRIGHT
 10
0
 20
0
 30
0
  9
$PUCSORGFRONT
 10
0
 20
0
 30
0
  9
$PUCSORGBACK
 10
0
 20
0
 30
0
  9
$USERI1
 70
    0
  9
$USERI2
 70
    0
  9
$USERI3
 70
    0
  9
$USERI4
 70
    0
  9
$USERI5
 70
    0
  9
$USERR1
 40
0
  9
$USERR2
 40
0
  9
$USERR3
 40
0
  9
$USERR4
 40
0
  9
$USERR5
 40
0
  9
$WORLDVIEW
 70
    1
  9
$SHADEDGE
 70
    3
  9
$SHADEDIF
 70
   70
  9
$TILEMODE
 70
    1
  9
$MAXACTVP
 70
   64
  9
$PINSBASE
 10
3.999277415583467
 20
4.467914036594586
 30
0
  9
$PLIMCHECK
 70
    0
  9
$PEXTMIN
 10
0
 20
0
 30
0
  9
$PEXTMAX
 10
0
 20
0
 30
0
  9
$GRIDMODE
 70
    1
  9
$SNAPSTYLE
 70
    0
  9
$GRIDUNIT
 10
0
 20
0
  9
$PLIMMIN
 10
0
 20
0
  9
$PLIMMAX
 10
21
 20
29.7
  9
$UNITMODE
 70
    0
  9
$VISRETAIN
 70
    1
  9
$PLINEGEN
 70
    0
  9
$PSLTSCALE
 70
    1
  9
$TREEDEPTH
 70
 3020
  9
$CMLSTYLE
  2
Standard
  9
$CMLJUST
 70
    0
  9
$CMLSCALE
 40
20
  9
$PROXYGRAPHICS
 70
    1
  9
$MEASUREMENT
 70
    1
  9
$CELWEIGHT
370
   -1
  9
$ENDCAPS
280
    0
  9
$JOINSTYLE
280
    0
  9
$LWDISPLAY
290
    0
  9
$INSUNITS
 70
    5
  9
$HYPERLINKBASE
  1

  9
$STYLESHEET
  1

  9
$XEDIT
290
    1
  9
$CEPSNTYPE
380
    0
  9
$PSTYLEMODE
290
    1
  9
$EXTNAMES
290
    1
  9
$PSVPSCALE
 40
0.008118926028464955
  9
$OLESTARTUP
290
    0
  9
$SORTENTS
280
  127
  9
$INDEXCTL
280
    0
  9
$HIDETEXT
280
    1
  9
$XCLIPFRAME
290
    0
  9
$HALOGAP
280
    0
  9
$OBSCOLOR
 70
  257
  9
$OBSLTYPE
280
    0
  9
$INTERSECTIONDISPLAY
280
    0
  9
$INTERSECTIONCOLOR
 70
  257
  9
$DIMASSOC
280
    1
  9
$PROJECTNAME
  1

  9
$CAMERADISPLAY
290
    0
  9
$LENSLENGTH
 40
50
  9
$CAMERAHEIGHT
 40
0
  9
$STEPSPERSEC
 40
2
  9
$STEPSIZE
 40
50
  9
$3DDWFPREC
 40
2
  9
$PSOLWIDTH
 40
5
  9
$PSOLHEIGHT
 40
80
  9
$LOFTANG1
 40
1.570796326794897
  9
$LOFTANG2
 40
1.570796326794897
  9
$LOFTMAG1
 40
0
  9
$LOFTMAG2
 40
0
  9
$LOFTPARAM
 70
    7
  9
$LOFTNORMALS
280
    1
  9
$LATITUDE
 40
1
  9
$LONGITUDE
 40
1
  9
$NORTHDIRECTION
 40
0
  9
$TIMEZONE
 70
-8000
  9
$LIGHTGLYPHDISPLAY
280
    1
  9
$TILEMODELIGHTSYNCH
280
    1
  9
$SOLIDHIST
280
    1
  9
$SHOWHIST
280
    1
  9
$DWFFRAME
280
    2
  9
$DGNFRAME
280
    0
  9
$REALWORLDSCALE
290
    1
  9
$INTERFERECOLOR
 62
    1
  9
$CSHADOW
280
    0
  9
$SHADOWPLANELOCATION
 40
0
  0
ENDSEC
  0
SECTION
  2
CLASSES
  0
ENDSEC
  0
SECTION
  2
TABLES
  0
TABLE
  2
VPORT
  5
8
330
0
100
AcDbSymbolTable
 70
    1
  0
VPORT
  5
31
330
2
100
AcDbSymbolTableRecord
100
AcDbViewportTableRecord
  2
*ACTIVE
 70
    0
 10
0
 20
0
 11
1
 21
1
 12
1160.850330548577
 22
672.8582126715992
 13
0
 23
0
 14
10
 24
10
 15
10
 25
10
 16
0
 26
0
 36
1
 17
0
 27
0
 37
0
 40
2688.714231645299
 41
1.623862487360971
 42
50
 43
0
 44
0
 50
0
 51
0
 71
    0
 72
  100
 73
    1
 74
    3
 75
    0
 76
    1
 77
    0
 78
    0
281
    0
 65
    1
110
0
120
0
130
0
111
1
121
0
131
0
112
0
122
1
132
0
 79
    0
146
0
348
10020
 60
    7
 61
    5
292
1
282
    1
141
0
142
0
 63
  250
421
3358443
  0
ENDTAB
  0
TABLE
  2
LTYPE
  5
5
330
0
100
AcDbSymbolTable
 70
    4
  0
LTYPE
  5
14
330
5
100
AcDbSymbolTableRecord
100
AcDbLinetypeTableRecord
  2
ByBlock
 70
    0
  3

 72
   65
 73
    0
 40
0
  0
LTYPE
  5
15
330
5
100
AcDbSymbolTableRecord
100
AcDbLinetypeTableRecord
  2
ByLayer
 70
    0
  3

 72
   65
 73
    0
 40
0
  0
LTYPE
  5
16
330
5
100
AcDbSymbolTableRecord
100
AcDbLinetypeTableRecord
  2
Continuous
 70
    0
  3
Solid line
 72
   65
 73
    0
 40
0
  0
LTYPE
  5
32
330
5
100
AcDbSymbolTableRecord
100
AcDbLinetypeTableRecord
  2
DOT
 70
    0
  3
Dot . . . . . . . . . . . . . . . . . . . . . .
 72
   65
 73
    2
 40
6.35
 49
0
 74
    0
 49
-6.35
 74
    0
  0
LTYPE
  5
33
330
5
100
AcDbSymbolTableRecord
100
AcDbLinetypeTableRecord
  2
DOTTINY
 70
    0
  3
Dot (.15x) .....................................
 72
   65
 73
    2
 40
0.9525
 49
0
 74
    0
 49
-0.9525
 74
    0
  0
LTYPE
  5
34
330
5
100
AcDbSymbolTableRecord
100
AcDbLinetypeTableRecord
  2
DOT2
 70
    0
  3
Dot (.5x) .....................................
 72
   65
 73
    2
 40
3.175
 49
0
 74
    0
 49
-3.175
 74
    0
  0
LTYPE
  5
35
330
5
100
AcDbSymbolTableRecord
100
AcDbLinetypeTableRecord
  2
DOTX2
 70
    0
  3
Dot (2x) .  .  .  .  .  .  .  .  .  .  .  .  .
 72
   65
 73
    2
 40
12.7
 49
0
 74
    0
 49
-12.7
 74
    0
  0
LTYPE
  5
36
330
5
100
AcDbSymbolTableRecord
100
AcDbLinetypeTableRecord
  2
DASHED
 70
    0
  3
Dashed _ _ _ _ _ _ _ _ _ _ _ _ _ _ _ _ _
 72
   65
 73
    2
 40
19.05
 49
12.7
 74
    0
 49
-6.35
 74
    0
  0
LTYPE
  5
37
330
5
100
AcDbSymbolTableRecord
100
AcDbLinetypeTableRecord
  2
DASHEDTINY
 70
    0
  3
Dashed (.15x) _ _ _ _ _ _ _ _ _ _ _ _ _ _ _ _ _
 72
   65
 73
    2
 40
2.8575
 49
1.905
 74
    0
 49
-0.9525
 74
    0
  0
LTYPE
  5
38
330
5
100
AcDbSymbolTableRecord
100
AcDbLinetypeTableRecord
  2
DASHED2
 70
    0
  3
Dashed (.5x) _ _ _ _ _ _ _ _ _ _ _ _ _ _ _ _ _
 72
   65
 73
    2
 40
9.524999999999999
 49
6.35
 74
    0
 49
-3.175
 74
    0
  0
LTYPE
  5
39
330
5
100
AcDbSymbolTableRecord
100
AcDbLinetypeTableRecord
  2
DASHEDX2
 70
    0
  3
Dashed (2x) ____  ____  ____  ____  ____  ___
 72
   65
 73
    2
 40
38.09999999999999
 49
25.4
 74
    0
 49
-12.7
 74
    0
  0
LTYPE
  5
3A
330
5
100
AcDbSymbolTableRecord
100
AcDbLinetypeTableRecord
  2
DASHDOT
 70
    0
  3
Dash dot __ . __ . __ . __ . __ . __ . __ . __
 72
   65
 73
    4
 40
25.4
 49
12.7
 74
    0
 49
-6.35
 74
    0
 49
0
 74
    0
 49
-6.35
 74
    0
  0
LTYPE
  5
3B
330
5
100
AcDbSymbolTableRecord
100
AcDbLinetypeTableRecord
  2
DASHDOTTINY
 70
    0
  3
Dash dot (.15x) _._._._._._._._._._._._._._._.
 72
   65
 73
    4
 40
3.81
 49
1.905
 74
    0
 49
-0.9525
 74
    0
 49
0
 74
    0
 49
-0.9525
 74
    0
  0
LTYPE
  5
3C
330
5
100
AcDbSymbolTableRecord
100
AcDbLinetypeTableRecord
  2
DASHDOT2
 70
    0
  3
Dash dot (.5x) _._._._._._._._._._._._._._._.
 72
   65
 73
    4
 40
12.7
 49
6.35
 74
    0
 49
-3.175
 74
    0
 49
0
 74
    0
 49
-3.175
 74
    0
  0
LTYPE
  5
3D
330
5
100
AcDbSymbolTableRecord
100
AcDbLinetypeTableRecord
  2
DASHDOTX2
 70
    0
  3
Dash dot (2x) ____  .  ____  .  ____  .  ___
 72
   65
 73
    4
 40
50.8
 49
25.4
 74
    0
 49
-12.7
 74
    0
 49
0
 74
    0
 49
-12.7
 74
    0
  0
LTYPE
  5
3E
330
5
100
AcDbSymbolTableRecord
100
AcDbLinetypeTableRecord
  2
DIVIDE
 70
    0
  3
Divide ____ . . ____ . . ____ . . ____ . . ____
 72
   65
 73
    6
 40
31.75
 49
12.7
 74
    0
 49
-6.35
 74
    0
 49
0
 74
    0
 49
-6.35
 74
    0
 49
0
 74
    0
 49
-6.35
 74
    0
  0
LTYPE
  5
3F
330
5
100
AcDbSymbolTableRecord
100
AcDbLinetypeTableRecord
  2
DIVIDETINY
 70
    0
  3
Divide (.15x) __..__..__..__..__..__..__..__.._
 72
   65
 73
    6
 40
4.7625
 49
1.905
 74
    0
 49
-0.9525
 74
    0
 49
0
 74
    0
 49
-0.9525
 74
    0
 49
0
 74
    0
 49
-0.9525
 74
    0
  0
LTYPE
  5
40
330
5
100
AcDbSymbolTableRecord
100
AcDbLinetypeTableRecord
  2
DIVIDE2
 70
    0
  3
Divide (.5x) __..__..__..__..__..__..__..__.._
 72
   65
 73
    6
 40
15.875
 49
6.35
 74
    0
 49
-3.175
 74
    0
 49
0
 74
    0
 49
-3.175
 74
    0
 49
0
 74
    0
 49
-3.175
 74
    0
  0
LTYPE
  5
41
330
5
100
AcDbSymbolTableRecord
100
AcDbLinetypeTableRecord
  2
DIVIDEX2
 70
    0
  3
Divide (2x) ________  .  .  ________  .  .  _
 72
   65
 73
    6
 40
63.5
 49
25.4
 74
    0
 49
-12.7
 74
    0
 49
0
 74
    0
 49
-12.7
 74
    0
 49
0
 74
    0
 49
-12.7
 74
    0
  0
LTYPE
  5
42
330
5
100
AcDbSymbolTableRecord
100
AcDbLinetypeTableRecord
  2
BORDER
 70
    0
  3
Border __ __ . __ __ . __ __ . __ __ . __ __ .
 72
   65
 73
    6
 40
44.45
 49
12.7
 74
    0
 49
-6.35
 74
    0
 49
12.7
 74
    0
 49
-6.35
 74
    0
 49
0
 74
    0
 49
-6.35
 74
    0
  0
LTYPE
  5
43
330
5
100
AcDbSymbolTableRecord
100
AcDbLinetypeTableRecord
  2
BORDERTINY
 70
    0
  3
Border (.15x) __.__.__.__.__.__.__.__.__.__.__.
 72
   65
 73
    6
 40
6.6675
 49
1.905
 74
    0
 49
-0.9525
 74
    0
 49
1.905
 74
    0
 49
-0.9525
 74
    0
 49
0
 74
    0
 49
-0.9525
 74
    0
  0
LTYPE
  5
44
330
5
100
AcDbSymbolTableRecord
100
AcDbLinetypeTableRecord
  2
BORDER2
 70
    0
  3
Border (.5x) __.__.__.__.__.__.__.__.__.__.__.
 72
   65
 73
    6
 40
22.225
 49
6.35
 74
    0
 49
-3.175
 74
    0
 49
6.35
 74
    0
 49
-3.175
 74
    0
 49
0
 74
    0
 49
-3.175
 74
    0
  0
LTYPE
  5
45
330
5
100
AcDbSymbolTableRecord
100
AcDbLinetypeTableRecord
  2
BORDERX2
 70
    0
  3
Border (2x) ____  ____  .  ____  ____  .  ___
 72
   65
 73
    6
 40
88.89999999999999
 49
25.4
 74
    0
 49
-12.7
 74
    0
 49
25.4
 74
    0
 49
-12.7
 74
    0
 49
0
 74
    0
 49
-12.7
 74
    0
  0
LTYPE
  5
46
330
5
100
AcDbSymbolTableRecord
100
AcDbLinetypeTableRecord
  2
CENTER
 70
    0
  3
Center ____ _ ____ _ ____ _ ____ _ ____ _ ____
 72
   65
 73
    4
 40
50.8
 49
31.75
 74
    0
 49
-6.35
 74
    0
 49
6.35
 74
    0
 49
-6.35
 74
    0
  0
LTYPE
  5
47
330
5
100
AcDbSymbolTableRecord
100
AcDbLinetypeTableRecord
  2
CENTERTINY
 70
    0
  3
Center (.15x) ___ _ ___ _ ___ _ ___ _ ___ _ ___
 72
   65
 73
    4
 40
7.619999999999999
 49
4.7625
 74
    0
 49
-0.9525
 74
    0
 49
0.9525
 74
    0
 49
-0.9525
 74
    0
  0
LTYPE
  5
48
330
5
100
AcDbSymbolTableRecord
100
AcDbLinetypeTableRecord
  2
CENTER2
 70
    0
  3
Center (.5x) ___ _ ___ _ ___ _ ___ _ ___ _ ___
 72
   65
 73
    4
 40
28.575
 49
19.05
 74
    0
 49
-3.175
 74
    0
 49
3.175
 74
    0
 49
-3.175
 74
    0
  0
LTYPE
  5
49
330
5
100
AcDbSymbolTableRecord
100
AcDbLinetypeTableRecord
  2
CENTERX2
 70
    0
  3
Center (2x) ________  __  ________  __  _____
 72
   65
 73
    4
 40
101.6
 49
63.5
 74
    0
 49
-12.7
 74
    0
 49
12.7
 74
    0
 49
-12.7
 74
    0
  0
ENDTAB
  0
TABLE
  2
LAYER
  5
2
330
0
100
AcDbSymbolTable
 70
    1
  0
LAYER
  5
10
330
2
100
AcDbSymbolTableRecord
100
AcDbLayerTableRecord
  2
0
 70
    0
 62
    7
  6
CONTINUOUS
370
    0
390
F
  0
LAYER
  5
4A
330
2
100
AcDbSymbolTableRecord
100
AcDbLayerTableRecord
  2
length
 70
    0
 62
   96
420
32768
  6
DASHEDTINY
370
    0
390
F
  0
LAYER
  5
4B
330
2
100
AcDbSymbolTableRecord
100
AcDbLayerTableRecord
  2
quantities
 70
    0
 62
    5
  6
CONTINUOUS
370
    0
390
F
  0
ENDTAB
  0
TABLE
  2
STYLE
  5
3
330
0
100
AcDbSymbolTable
 70
    3
  0
STYLE
  5
4C
330
2
100
AcDbSymbolTableRecord
100
AcDbTextStyleTableRecord
  2
standard
 70
    0
 40
0
 41
1
 50
0
 71
    0
 42
1
  3
standard
  4

  0
ENDTAB
  0
TABLE
  2
VIEW
  5
6
330
0
100
AcDbSymbolTable
 70
    0
  0
ENDTAB
  0
TABLE
  2
UCS
  5
7
330
0
100
AcDbSymbolTable
 70
    0
  0
ENDTAB
  0
TABLE
  2
APPID
  5
9
330
0
100
AcDbSymbolTable
 70
    1
  0
APPID
  5
12
330
9
100
AcDbSymbolTableRecord
100
AcDbRegAppTableRecord
  2
ACAD
 70
    0
  0
APPID
  5
4D
330
9
100
AcDbSymbolTableRecord
100
AcDbRegAppTableRecord
  2
LibreCad
 70
    0
  0
ENDTAB
  0
TABLE
  2
DIMSTYLE
  5
A
330
0
100
AcDbSymbolTable
 70
    1
100
AcDbDimStyleTable
 71
    1
  0
DIMSTYLE
105
4E
330
A
100
AcDbSymbolTableRecord
100
AcDbDimStyleTableRecord
  2
Standard
 70
    0
 40
1
 41
15
 42
0.625
 43
0.38
 44
1.25
 45
0
 46
0
 47
0
 48
0
 49
1
140
20
141
0.09
142
0
143
25.4
144
1
145
0
146
1
147
0.625
148
0
 71
    0
 72
    0
 73
    0
 74
    1
 75
    0
 76
    0
 77
    0
 78
    1
 79
    0
170
    0
171
    2
172
    0
173
    0
174
    0
175
    0
176
    0
177
    0
178
    0
179
    2
271
    0
272
    4
273
    2
274
    2
275
    0
276
    0
277
    2
278
    0
279
    0
280
    0
281
    0
282
    0
283
    1
284
    0
285
    0
286
    0
288
    0
289
    3
340
standard
341

371
   -2
372
   -2
  0
ENDTAB
  0
TABLE
  2
BLOCK_RECORD
  5
1
330
0
100
AcDbSymbolTable
 70
    2
  0
BLOCK_RECORD
  5
1F
330
1
100
AcDbSymbolTableRecord
100
AcDbBlockTableRecord
  2
*Model_Space
 70
    0
280
    1
281
    0
  0
BLOCK_RECORD
  5
1E
330
1
100
AcDbSymbolTableRecord
100
AcDbBlockTableRecord
  2
*Paper_Space
 70
    0
280
    1
281
    0
  0
BLOCK_RECORD
  5
4F
330
1
100
AcDbSymbolTableRecord
100
AcDbBlockTableRecord
  2
*D14
 70
    0
280
    1
281
    0
  0
BLOCK_RECORD
  5
52
330
1
100
AcDbSymbolTableRecord
100
AcDbBlockTableRecord
  2
*D8
 70
    0
280
    1
281
    0
  0
BLOCK_RECORD
  5
55
330
1
100
AcDbSymbolTableRecord
100
AcDbBlockTableRecord
  2
*D6
 70
    0
280
    1
281
    0
  0
BLOCK_RECORD
  5
58
330
1
100
AcDbSymbolTableRecord
100
AcDbBlockTableRecord
  2
*D7
 70
    0
280
    1
281
    0
  0
BLOCK_RECORD
  5
5B
330
1
100
AcDbSymbolTableRecord
100
AcDbBlockTableRecord
  2
*D11
 70
    0
280
    1
281
    0
  0
BLOCK_RECORD
  5
5E
330
1
100
AcDbSymbolTableRecord
100
AcDbBlockTableRecord
  2
*D3
 70
    0
280
    1
281
    0
  0
BLOCK_RECORD
  5
61
330
1
100
AcDbSymbolTableRecord
100
AcDbBlockTableRecord
  2
*D12
 70
    0
280
    1
281
    0
  0
BLOCK_RECORD
  5
64
330
1
100
AcDbSymbolTableRecord
100
AcDbBlockTableRecord
  2
*D2
 70
    0
280
    1
281
    0
  0
BLOCK_RECORD
  5
67
330
1
100
AcDbSymbolTableRecord
100
AcDbBlockTableRecord
  2
*D13
 70
    0
280
    1
281
    0
  0
BLOCK_RECORD
  5
6A
330
1
100
AcDbSymbolTableRecord
100
AcDbBlockTableRecord
  2
*D4
 70
    0
280
    1
281
    0
  0
BLOCK_RECORD
  5
6D
330
1
100
AcDbSymbolTableRecord
100
AcDbBlockTableRecord
  2
*D16
 70
    0
280
    1
281
    0
  0
BLOCK_RECORD
  5
70
330
1
100
AcDbSymbolTableRecord
100
AcDbBlockTableRecord
  2
*D9
 70
    0
280
    1
281
    0
  0
BLOCK_RECORD
  5
73
330
1
100
AcDbSymbolTableRecord
100
AcDbBlockTableRecord
  2
*D18
 70
    0
280
    1
281
    0
  0
BLOCK_RECORD
  5
76
330
1
100
AcDbSymbolTableRecord
100
AcDbBlockTableRecord
  2
*D17
 70
    0
280
    1
281
    0
  0
BLOCK_RECORD
  5
79
330
1
100
AcDbSymbolTableRecord
100
AcDbBlockTableRecord
  2
*D5
 70
    0
280
    1
281
    0
  0
BLOCK_RECORD
  5
7C
330
1
100
AcDbSymbolTableRecord
100
AcDbBlockTableRecord
  2
*D10
 70
    0
280
    1
281
    0
  0
BLOCK_RECORD
  5
7F
330
1
100
AcDbSymbolTableRecord
100
AcDbBlockTableRecord
  2
*D15
 70
    0
280
    1
281
    0
  0
BLOCK_RECORD
  5
82
330
1
100
AcDbSymbolTableRecord
100
AcDbBlockTableRecord
  2
*D1
 70
    0
280
    1
281
    0
  0
ENDTAB
  0
ENDSEC
  0
SECTION
  2
BLOCKS
  0
BLOCK
  5
20
330
1F
100
AcDbEntity
  8
0
100
AcDbBlockBegin
  2
*Model_Space
 70
    0
 10
0
 20
0
 30
0
  3
*Model_Space
  1

  0
ENDBLK
  5
21
330
1F
100
AcDbEntity
  8
0
100
AcDbBlockEnd
  0
BLOCK
  5
1C
330
1B
100
AcDbEntity
  8
0
100
AcDbBlockBegin
  2
*Paper_Space
 70
    0
 10
0
 20
0
 30
0
  3
*Paper_Space
  1

  0
ENDBLK
  5
1D
330
1F
100
AcDbEntity
  8
0
100
AcDbBlockEnd
  0
BLOCK
  5
50
330
4F
100
AcDbEntity
  8
0
100
AcDbBlockBegin
  2
*D14
 70
    1
 10
0
 20
0
  3
*D14
  1

  0
LINE
  5
85
100
AcDbEntity
  8
length
  6
ByBlock
 62
    0
370
   -2
100
AcDbLine
 10
1600
 20
1504.625
 11
1600
 21
1531.25
  0
LINE
  5
86
100
AcDbEntity
  8
length
  6
ByBlock
 62
    0
370
   -2
100
AcDbLine
 10
1940
 20
1504.625
 11
1940
 21
1531.25
  0
LINE
  5
87
100
AcDbEntity
  8
length
  6
ByBlock
 62
    0
370
   -2
100
AcDbLine
 10
1600
 20
1530
 11
1940
 21
1530
  0
SOLID
  5
88
100
AcDbEntity
  8
length
  6
ByBlock
 62
    0
370
   -2
100
AcDbTrace
 10
1600
 20
1530
 30
0
 11
1615
 21
1532.497707946637
 31
0
 12
1615
 22
1527.502292053363
 32
0
 13
1615
 23
1527.502292053363
 33
0
  0
SOLID
  5
89
100
AcDbEntity
  8
length
  6
ByBlock
 62
    0
370
   -2
100
AcDbTrace
 10
1940
 20
1530
 30
0
 11
1925
 21
1527.502292053363
 31
0
 12
1925
 22
1532.497707946637
 32
0
 13
1925
 23
1532.497707946637
 33
0
  0
MTEXT
  5
8A
100
AcDbEntity
  8
length
  6
CONTINUOUS
 62
    0
370
   -2
100
AcDbMText
 10
1770
 20
1540.625
 30
0
 40
20
 41
42.22222222222346
 71
    5
 72
    1
  1
340
  7
standard
210
0
220
0
230
1
 50
0
 73
    2
 44
1
  0
ENDBLK
  5
51
330
4F
100
AcDbEntity
  8
0
100
AcDbBlockEnd
  0
BLOCK
  5
53
330
52
100
AcDbEntity
  8
0
100
AcDbBlockBegin
  2
*D8
 70
    1
 10
0
 20
0
  3
*D8
  1

  0
LINE
  5
8B
100
AcDbEntity
  8
length
  6
ByBlock
 62
    0
370
   -2
100
AcDbLine
 10
449.375
 20
7.654042494670958e-17
 11
428.75
 21
2.602374448188126e-15
  0
LINE
  5
8C
100
AcDbEntity
  8
length
  6
ByBlock
 62
    0
370
   -2
100
AcDbLine
 10
449.375
 20
38
 11
428.75
 21
38
  0
LINE
  5
8D
100
AcDbEntity
  8
length
  6
ByBlock
 62
    0
370
   -2
100
AcDbLine
 10
430
 20
2.449293598294707e-15
 11
430
 21
38
  0
SOLID
  5
8E
100
AcDbEntity
  8
length
  6
ByBlock
 62
    0
370
   -2
100
AcDbTrace
 10
430
 20
2.449293598294707e-15
 30
0
 11
427.502292053363
 21
15
 31
0
 12
432.497707946637
 22
15
 32
0
 13
432.497707946637
 23
15
 33
0
  0
SOLID
  5
8F
100
AcDbEntity
  8
length
  6
ByBlock
 62
    0
370
   -2
100
AcDbTrace
 10
430
 20
38
 30
0
 11
432.497707946637
 21
23
 31
0
 12
427.502292053363
 22
23
 32
0
 13
427.502292053363
 23
23
 33
0
  0
MTEXT
  5
90
100
AcDbEntity
  8
length
  6
CONTINUOUS
 62
    0
370
   -2
100
AcDbMText
 10
419.375
 20
19
 30
0
 40
20
 41
24.44444444444569
 71
    5
 72
    1
  1
38
  7
standard
210
0
220
0
230
1
 50
90
 73
    2
 44
1
  0
ENDBLK
  5
54
330
52
100
AcDbEntity
  8
0
100
AcDbBlockEnd
  0
BLOCK
  5
56
330
55
100
AcDbEntity
  8
0
100
AcDbBlockBegin
  2
*D6
 70
    1
 10
0
 20
0
  3
*D6
  1

  0
LINE
  5
91
100
AcDbEntity
  8
length
  6
ByBlock
 62
    0
370
   -2
100
AcDbLine
 10
399.375
 20
2500
 11
298.7499999999999
 21
2500
  0
LINE
  5
92
100
AcDbEntity
  8
length
  6
ByBlock
 62
    0
370
   -2
100
AcDbLine
 10
399.375
 20
7.654042494670958e-17
 11
298.7499999999999
 21
1.239954884136697e-14
  0
LINE
  5
93
100
AcDbEntity
  8
length
  6
ByBlock
 62
    0
370
   -2
100
AcDbLine
 10
299.9999999999999
 20
2500
 11
299.9999999999999
 21
1.224646799147355e-14
  0
SOLID
  5
94
100
AcDbEntity
  8
length
  6
ByBlock
 62
    0
370
   -2
100
AcDbTrace
 10
299.9999999999999
 20
2500
 30
0
 11
302.4977079466369
 21
2485
 31
0
 12
297.5022920533629
 22
2485
 32
0
 13
297.5022920533629
 23
2485
 33
0
  0
SOLID
  5
95
100
AcDbEntity
  8
length
  6
ByBlock
 62
    0
370
   -2
100
AcDbTrace
 10
299.9999999999999
 20
1.224646799147355e-14
 30
0
 11
297.5022920533629
 21
15.00000000000001
 31
0
 12
302.4977079466369
 22
15.00000000000001
 32
0
 13
302.4977079466369
 23
15.00000000000001
 33
0
  0
MTEXT
  5
96
100
AcDbEntity
  8
length
  6
CONTINUOUS
 62
    0
370
   -2
100
AcDbMText
 10
289.3749999999999
 20
1250
 30
0
 40
20
 41
55.55555555555681
 71
    5
 72
    1
  1
2500
  7
standard
210
0
220
0
230
1
 50
90
 73
    2
 44
1
  0
ENDBLK
  5
57
330
55
100
AcDbEntity
  8
0
100
AcDbBlockEnd
  0
BLOCK
  5
59
330
58
100
AcDbEntity
  8
0
100
AcDbBlockBegin
  2
*D7
 70
    1
 10
0
 20
0
  3
*D7
  1

  0
LINE
  5
97
100
AcDbEntity
  8
length
  6
ByBlock
 62
    0
370
   -2
100
AcDbLine
 10
399.375
 20
2190
 11
338.7499999999997
 21
2190
  0
LINE
  5
98
100
AcDbEntity
  8
length
  6
ByBlock
 62
    0
370
   -2
100
AcDbLine
 10
399.375
 20
7.654042494670958e-17
 11
338.7499999999997
 21
7.500961644777574e-15
  0
LINE
  5
99
100
AcDbEntity
  8
length
  6
ByBlock
 62
    0
370
   -2
100
AcDbLine
 10
339.9999999999997
 20
2190
 11
339.9999999999997
 21
7.347880794884155e-15
  0
SOLID
  5
9A
100
AcDbEntity
  8
length
  6
ByBlock
 62
    0
370
   -2
100
AcDbTrace
 10
339.9999999999997
 20
2190
 30
0
 11
342.4977079466368
 21
2175
 31
0
 12
337.5022920533627
 22
2175
 32
0
 13
337.5022920533627
 23
2175
 33
0
  0
SOLID
  5
9B
100
AcDbEntity
  8
length
  6
ByBlock
 62
    0
370
   -2
100
AcDbTrace
 10
339.9999999999997
 20
7.347880794884155e-15
 30
0
 11
337.5022920533627
 21
15.00000000000001
 31
0
 12
342.4977079466368
 22
15.00000000000001
 32
0
 13
342.4977079466368
 23
15.00000000000001
 33
0
  0
MTEXT
  5
9C
100
AcDbEntity
  8
length
  6
CONTINUOUS
 62
    0
370
   -2
100
AcDbMText
 10
329.3749999999997
 20
1095
 30
0
 40
20
 41
51.11111111111111
 71
    5
 72
    1
  1
2190
  7
standard
210
0
220
0
230
1
 50
90
 73
    2
 44
1
  0
ENDBLK
  5
5A
330
58
100
AcDbEntity
  8
0
100
AcDbBlockEnd
  0
BLOCK
  5
5C
330
5B
100
AcDbEntity
  8
0
100
AcDbBlockBegin
  2
*D11
 70
    1
 10
0
 20
0
  3
*D11
  1

  0
LINE
  5
9D
100
AcDbEntity
  8
length
  6
ByBlock
 62
    0
370
   -2
100
AcDbLine
 10
1079.375
 20
2400
 11
1058.75
 21
2400
  0
LINE
  5
9E
100
AcDbEntity
  8
length
  6
ByBlock
 62
    0
370
   -2
100
AcDbLine
 10
1079.375
 20
-4.822046771642779e-15
 11
1058.75
 21
-2.296212748401362e-15
  0
LINE
  5
9F
100
AcDbEntity
  8
length
  6
ByBlock
 62
    0
370
   -2
100
AcDbLine
 10
1060
 20
2400
 11
1060
 21
-2.449293598294781e-15
  0
SOLID
  5
A0
100
AcDbEntity
  8
length
  6
ByBlock
 62
    0
370
   -2
100
AcDbTrace
 10
1060
 20
2400
 30
0
 11
1062.497707946637
 21
2385
 31
0
 12
1057.502292053363
 22
2385
 32
0
 13
1057.502292053363
 23
2385
 33
0
  0
SOLID
  5
A1
100
AcDbEntity
  8
length
  6
ByBlock
 62
    0
370
   -2
100
AcDbTrace
 10
1060
 20
-2.449293598294781e-15
 30
0
 11
1057.502292053363
 21
15
 31
0
 12
1062.497707946637
 22
15
 32
0
 13
1062.497707946637
 23
15
 33
0
  0
MTEXT
  5
A2
100
AcDbEntity
  8
length
  6
CONTINUOUS
 62
    0
370
   -2
100
AcDbMText
 10
1049.375
 20
1200
 30
0
 40
20
 41
57.77777777777778
 71
    5
 72
    1
  1
2400
  7
standard
210
0
220
0
230
1
 50
90
 73
    2
 44
1
  0
ENDBLK
  5
5D
330
5B
100
AcDbEntity
  8
0
100
AcDbBlockEnd
  0
BLOCK
  5
5F
330
5E
100
AcDbEntity
  8
0
100
AcDbBlockBegin
  2
*D3
 70
    1
 10
0
 20
0
  3
*D3
  1

  0
LINE
  5
A3
100
AcDbEntity
  8
length
  6
ByBlock
 62
    0
370
   -2
100
AcDbLine
 10
450
 20
-0.625
 11
450
 21
-41.25
  0
LINE
  5
A4
100
AcDbEntity
  8
length
  6
ByBlock
 62
    0
370
   -2
100
AcDbLine
 10
472
 20
-0.625
 11
472
 21
-41.25
  0
LINE
  5
A5
100
AcDbEntity
  8
length
  6
ByBlock
 62
    0
370
   -2
100
AcDbLine
 10
420
 20
-39.99999999999999
 11
502
 21
-40.00000000000001
  0
SOLID
  5
A6
100
AcDbEntity
  8
length
  6
ByBlock
 62
    0
370
   -2
100
AcDbTrace
 10
450
 20
-40
 30
0
 11
435
 21
-42.49770794663704
 31
0
 12
435
 22
-37.50229205336296
 32
0
 13
435
 23
-37.50229205336296
 33
0
  0
SOLID
  5
A7
100
AcDbEntity
  8
length
  6
ByBlock
 62
    0
370
   -2
100
AcDbTrace
 10
472
 20
-40
 30
0
 11
487
 21
-37.50229205336296
 31
0
 12
487
 22
-42.49770794663704
 32
0
 13
487
 23
-42.49770794663704
 33
0
  0
MTEXT
  5
A8
100
AcDbEntity
  8
length
  6
CONTINUOUS
 62
    0
370
   -2
100
AcDbMText
 10
484.8472222222222
 20
-29.375
 30
0
 40
20
 41
24.44444444444445
 71
    5
 72
    1
  1
22
  7
standard
210
0
220
0
230
1
 50
0
 73
    2
 44
1
  0
ENDBLK
  5
60
330
5E
100
AcDbEntity
  8
0
100
AcDbBlockEnd
  0
BLOCK
  5
62
330
61
100
AcDbEntity
  8
0
100
AcDbBlockBegin
  2
*D12
 70
    1
 10
0
 20
0
  3
*D12
  1

  0
LINE
  5
A9
100
AcDbEntity
  8
length
  6
ByBlock
 62
    0
370
   -2
100
AcDbLine
 10
1080
 20
2400.625
 11
1080
 21
2441.25
  0
LINE
  5
AA
100
AcDbEntity
  8
length
  6
ByBlock
 62
    0
370
   -2
100
AcDbLine
 10
1420
 20
2400.625
 11
1420
 21
2441.25
  0
LINE
  5
AB
100
AcDbEntity
  8
length
  6
ByBlock
 62
    0
370
   -2
100
AcDbLine
 10
1080
 20
2440
 11
1420
 21
2440
  0
SOLID
  5
AC
100
AcDbEntity
  8
length
  6
ByBlock
 62
    0
370
   -2
100
AcDbTrace
 10
1080
 20
2440
 30
0
 11
1095
 21
2442.497707946637
 31
0
 12
1095
 22
2437.502292053363
 32
0
 13
1095
 23
2437.502292053363
 33
0
  0
SOLID
  5
AD
100
AcDbEntity
  8
length
  6
ByBlock
 62
    0
370
   -2
100
AcDbTrace
 10
1420
 20
2440
 30
0
 11
1405
 21
2437.502292053363
 31
0
 12
1405
 22
2442.497707946637
 32
0
 13
1405
 23
2442.497707946637
 33
0
  0
MTEXT
  5
AE
100
AcDbEntity
  8
length
  6
CONTINUOUS
 62
    0
370
   -2
100
AcDbMText
 10
1250
 20
2450.625
 30
0
 40
20
 41
42.22222222222346
 71
    5
 72
    1
  1
340
  7
standard
210
0
220
0
230
1
 50
0
 73
    2
 44
1
  0
ENDBLK
  5
63
330
61
100
AcDbEntity
  8
0
100
AcDbBlockEnd
  0
BLOCK
  5
65
330
64
100
AcDbEntity
  8
0
100
AcDbBlockBegin
  2
*D2
 70
    1
 10
0
 20
0
  3
*D2
  1

  0
LINE
  5
AF
100
AcDbEntity
  8
length
  6
ByBlock
 62
    0
370
   -2
100
AcDbLine
 10
400
 20
2190.625
 11
400
 21
2211.25
  0
LINE
  5
B0
100
AcDbEntity
  8
length
  6
ByBlock
 62
    0
370
   -2
100
AcDbLine
 10
450
 20
2190.625
 11
450
 21
2211.25
  0
LINE
  5
B1
100
AcDbEntity
  8
length
  6
ByBlock
 62
    0
370
   -2
100
AcDbLine
 10
400
 20
2210
 11
450
 21
2210
  0
SOLID
  5
B2
100
AcDbEntity
  8
length
  6
ByBlock
 62
    0
370
   -2
100
AcDbTrace
 10
400
 20
2210
 30
0
 11
415
 21
2212.497707946637
 31
0
 12
415
 22
2207.502292053363
 32
0
 13
415
 23
2207.502292053363
 33
0
  0
SOLID
  5
B3
100
AcDbEntity
  8
length
  6
ByBlock
 62
    0
370
   -2
100
AcDbTrace
 10
450
 20
2210
 30
0
 11
435
 21
2207.502292053363
 31
0
 12
435
 22
2212.497707946637
 32
0
 13
435
 23
2212.497707946637
 33
0
  0
MTEXT
  5
B4
100
AcDbEntity
  8
length
  6
CONTINUOUS
 62
    0
370
   -2
100
AcDbMText
 10
425
 20
2220.625
 30
0
 40
20
 41
24.44444444444569
 71
    5
 72
    1
  1
50
  7
standard
210
0
220
0
230
1
 50
0
 73
    2
 44
1
  0
ENDBLK
  5
66
330
64
100
AcDbEntity
  8
0
100
AcDbBlockEnd
  0
BLOCK
  5
68
330
67
100
AcDbEntity
  8
0
100
AcDbBlockBegin
  2
*D13
 70
    1
 10
0
 20
0
  3
*D13
  1

  0
LINE
  5
B5
100
AcDbEntity
  8
length
  6
ByBlock
 62
    0
370
   -2
100
AcDbLine
 10
1599.375
 20
1504
 11
1578.75
 21
1504
  0
LINE
  5
B6
100
AcDbEntity
  8
length
  6
ByBlock
 62
    0
370
   -2
100
AcDbLine
 10
1599.375
 20
7.654042494670958e-17
 11
1578.75
 21
2.602374448188126e-15
  0
LINE
  5
B7
100
AcDbEntity
  8
length
  6
ByBlock
 62
    0
370
   -2
100
AcDbLine
 10
1580
 20
1504
 11
1580
 21
2.449293598294707e-15
  0
SOLID
  5
B8
100
AcDbEntity
  8
length
  6
ByBlock
 62
    0
370
   -2
100
AcDbTrace
 10
1580
 20
1504
 30
0
 11
1582.497707946637
 21
1489
 31
0
 12
1577.502292053363
 22
1489
 32
0
 13
1577.502292053363
 23
1489
 33
0
  0
SOLID
  5
B9
100
AcDbEntity
  8
length
  6
ByBlock
 62
    0
370
   -2
100
AcDbTrace
 10
1580
 20
2.449293598294707e-15
 30
0
 11
1577.502292053363
 21
15
 31
0
 12
1582.497707946637
 22
15
 32
0
 13
1582.497707946637
 23
15
 33
0
  0
MTEXT
  5
BA
100
AcDbEntity
  8
length
  6
CONTINUOUS
 62
    0
370
   -2
100
AcDbMText
 10
1569.375
 20
752
 30
0
 40
20
 41
53.33333333333457
 71
    5
 72
    1
  1
1504
  7
standard
210
0
220
0
230
1
 50
90
 73
    2
 44
1
  0
ENDBLK
  5
69
330
67
100
AcDbEntity
  8
0
100
AcDbBlockEnd
  0
BLOCK
  5
6B
330
6A
100
AcDbEntity
  8
0
100
AcDbBlockBegin
  2
*D4
 70
    1
 10
0
 20
0
  3
*D4
  1

  0
LINE
  5
BB
100
AcDbEntity
  8
length
  6
ByBlock
 62
    0
370
   -2
100
AcDbLine
 10
740
 20
-0.625
 11
740
 21
-41.25
  0
LINE
  5
BC
100
AcDbEntity
  8
length
  6
ByBlock
 62
    0
370
   -2
100
AcDbLine
 10
718
 20
-0.625
 11
718
 21
-41.25
  0
LINE
  5
BD
100
AcDbEntity
  8
length
  6
ByBlock
 62
    0
370
   -2
100
AcDbLine
 10
770
 20
-40
 11
688
 21
-40
  0
SOLID
  5
BE
100
AcDbEntity
  8
length
  6
ByBlock
 62
    0
370
   -2
100
AcDbTrace
 10
740
 20
-40
 30
0
 11
755
 21
-37.50229205336296
 31
0
 12
755
 22
-42.49770794663704
 32
0
 13
755
 23
-42.49770794663704
 33
0
  0
SOLID
  5
BF
100
AcDbEntity
  8
length
  6
ByBlock
 62
    0
370
   -2
100
AcDbTrace
 10
718
 20
-40
 30
0
 11
703
 21
-42.49770794663704
 31
0
 12
703
 22
-37.50229205336296
 32
0
 13
703
 23
-37.50229205336296
 33
0
  0
MTEXT
  5
C0
100
AcDbEntity
  8
length
  6
CONTINUOUS
 62
    0
370
   -2
100
AcDbMText
 10
752.8472222222222
 20
-29.37500000000001
 30
0
 40
20
 41
24.44444444444445
 71
    5
 72
    1
  1
22
  7
standard
210
0
220
0
230
1
 50
360
 73
    2
 44
1
  0
ENDBLK
  5
6C
330
6A
100
AcDbEntity
  8
0
100
AcDbBlockEnd
  0
BLOCK
  5
6E
330
6D
100
AcDbEntity
  8
0
100
AcDbBlockBegin
  2
*D16
 70
    1
 10
0
 20
0
  3
*D16
  1

  0
LINE
  5
C1
100
AcDbEntity
  8
length
  6
ByBlock
 62
    0
370
   -2
100
AcDbLine
 10
-218
 20
2500.625
 11
-218
 21
2541.25
  0
LINE
  5
C2
100
AcDbEntity
  8
length
  6
ByBlock
 62
    0
370
   -2
100
AcDbLine
 10
122
 20
2500.625
 11
122
 21
2541.25
  0
LINE
  5
C3
100
AcDbEntity
  8
length
  6
ByBlock
 62
    0
370
   -2
100
AcDbLine
 10
-218
 20
2540
 11
122
 21
2540
  0
SOLID
  5
C4
100
AcDbEntity
  8
length
  6
ByBlock
 62
    0
370
   -2
100
AcDbTrace
 10
-218
 20
2540
 30
0
 11
-203
 21
2542.497707946637
 31
0
 12
-203
 22
2537.502292053363
 32
0
 13
-203
 23
2537.502292053363
 33
0
  0
SOLID
  5
C5
100
AcDbEntity
  8
length
  6
ByBlock
 62
    0
370
   -2
100
AcDbTrace
 10
122
 20
2540
 30
0
 11
107
 21
2537.502292053363
 31
0
 12
107
 22
2542.497707946637
 32
0
 13
107
 23
2542.497707946637
 33
0
  0
MTEXT
  5
C6
100
AcDbEntity
  8
length
  6
CONTINUOUS
 62
    0
370
   -2
100
AcDbMText
 10
-48
 20
2550.625
 30
0
 40
20
 41
42.22222222222346
 71
    5
 72
    1
  1
340
  7
standard
210
0
220
0
230
1
 50
0
 73
    2
 44
1
  0
ENDBLK
  5
6F
330
6D
100
AcDbEntity
  8
0
100
AcDbBlockEnd
  0
BLOCK
  5
71
330
70
100
AcDbEntity
  8
0
100
AcDbBlockBegin
  2
*D9
 70
    1
 10
0
 20
0
  3
*D9
  1

  0
LINE
  5
C7
100
AcDbEntity
  8
length
  6
ByBlock
 62
    0
370
   -2
100
AcDbLine
 10
919.3750000000005
 20
2500
 11
898.75
 21
2500
  0
LINE
  5
C8
100
AcDbEntity
  8
length
  6
ByBlock
 62
    0
370
   -2
100
AcDbLine
 10
919.3750000000005
 20
-4.822046771642779e-15
 11
898.75
 21
-2.296212748401307e-15
  0
LINE
  5
C9
100
AcDbEntity
  8
length
  6
ByBlock
 62
    0
370
   -2
100
AcDbLine
 10
900
 20
2500
 11
900
 21
-2.449293598294726e-15
  0
SOLID
  5
CA
100
AcDbEntity
  8
length
  6
ByBlock
 62
    0
370
   -2
100
AcDbTrace
 10
900
 20
2500
 30
0
 11
902.4977079466371
 21
2485
 31
0
 12
897.5022920533629
 22
2485
 32
0
 13
897.5022920533629
 23
2485
 33
0
  0
SOLID
  5
CB
100
AcDbEntity
  8
length
  6
ByBlock
 62
    0
370
   -2
100
AcDbTrace
 10
900
 20
-2.449293598294726e-15
 30
0
 11
897.5022920533629
 21
15
 31
0
 12
902.4977079466371
 22
15
 32
0
 13
902.4977079466371
 23
15
 33
0
  0
MTEXT
  5
CC
100
AcDbEntity
  8
length
  6
CONTINUOUS
 62
    0
370
   -2
100
AcDbMText
 10
889.375
 20
1250
 30
0
 40
20
 41
55.55555555555681
 71
    5
 72
    1
  1
2500
  7
standard
210
0
220
0
230
1
 50
90
 73
    2
 44
1
  0
ENDBLK
  5
72
330
70
100
AcDbEntity
  8
0
100
AcDbBlockEnd
  0
BLOCK
  5
74
330
73
100
AcDbEntity
  8
0
100
AcDbBlockBegin
  2
*D18
 70
    1
 10
0
 20
0
  3
*D18
  1

  0
LINE
  5
CD
100
AcDbEntity
  8
length
  6
ByBlock
 62
    0
370
   -2
100
AcDbLine
 10
122.625
 20
0
 11
143.25
 21
0
  0
LINE
  5
CE
100
AcDbEntity
  8
length
  6
ByBlock
 62
    0
370
   -2
100
AcDbLine
 10
122.625
 20
38
 11
143.25
 21
38
  0
LINE
  5
CF
100
AcDbEntity
  8
length
  6
ByBlock
 62
    0
370
   -2
100
AcDbLine
 10
142
 20
0
 11
142
 21
38
  0
SOLID
  5
D0
100
AcDbEntity
  8
length
  6
ByBlock
 62
    0
370
   -2
100
AcDbTrace
 10
142
 20
0
 30
0
 11
139.502292053363
 21
15
 31
0
 12
144.497707946637
 22
15
 32
0
 13
144.497707946637
 23
15
 33
0
  0
SOLID
  5
D1
100
AcDbEntity
  8
length
  6
ByBlock
 62
    0
370
   -2
100
AcDbTrace
 10
142
 20
38
 30
0
 11
144.497707946637
 21
23
 31
0
 12
139.502292053363
 22
23
 32
0
 13
139.502292053363
 23
23
 33
0
  0
MTEXT
  5
D2
100
AcDbEntity
  8
length
  6
CONTINUOUS
 62
    0
370
   -2
100
AcDbMText
 10
131.375
 20
19
 30
0
 40
20
 41
24.44444444444569
 71
    5
 72
    1
  1
38
  7
standard
210
0
220
0
230
1
 50
90
 73
    2
 44
1
  0
ENDBLK
  5
75
330
73
100
AcDbEntity
  8
0
100
AcDbBlockEnd
  0
BLOCK
  5
77
330
76
100
AcDbEntity
  8
0
100
AcDbBlockBegin
  2
*D17
 70
    1
 10
0
 20
0
  3
*D17
  1

  0
LINE
  5
D3
100
AcDbEntity
  8
length
  6
ByBlock
 62
    0
370
   -2
100
AcDbLine
 10
100
 20
-0.625
 11
99.99999999999999
 21
-41.25
  0
LINE
  5
D4
100
AcDbEntity
  8
length
  6
ByBlock
 62
    0
370
   -2
100
AcDbLine
 10
122
 20
-0.625
 11
122
 21
-41.25
  0
LINE
  5
D5
100
AcDbEntity
  8
length
  6
ByBlock
 62
    0
370
   -2
100
AcDbLine
 10
69.99999999999999
 20
-39.99999999999999
 11
152
 21
-40.00000000000001
  0
SOLID
  5
D6
100
AcDbEntity
  8
length
  6
ByBlock
 62
    0
370
   -2
100
AcDbTrace
 10
99.99999999999999
 20
-40
 30
0
 11
84.99999999999999
 21
-42.49770794663704
 31
0
 12
84.99999999999999
 22
-37.50229205336296
 32
0
 13
84.99999999999999
 23
-37.50229205336296
 33
0
  0
SOLID
  5
D7
100
AcDbEntity
  8
length
  6
ByBlock
 62
    0
370
   -2
100
AcDbTrace
 10
122
 20
-40
 30
0
 11
137
 21
-37.50229205336296
 31
0
 12
137
 22
-42.49770794663704
 32
0
 13
137
 23
-42.49770794663704
 33
0
  0
MTEXT
  5
D8
100
AcDbEntity
  8
length
  6
CONTINUOUS
 62
    0
370
   -2
100
AcDbMText
 10
134.8472222222222
 20
-29.375
 30
0
 40
20
 41
24.44444444444445
 71
    5
 72
    1
  1
22
  7
standard
210
0
220
0
230
1
 50
0
 73
    2
 44
1
  0
ENDBLK
  5
78
330
76
100
AcDbEntity
  8
0
100
AcDbBlockEnd
  0
BLOCK
  5
7A
330
79
100
AcDbEntity
  8
0
100
AcDbBlockBegin
  2
*D5
 70
    1
 10
0
 20
0
  3
*D5
  1

  0
LINE
  5
D9
100
AcDbEntity
  8
length
  6
ByBlock
 62
    0
370
   -2
100
AcDbLine
 10
740.625
 20
0
 11
761.25
 21
0
  0
LINE
  5
DA
100
AcDbEntity
  8
length
  6
ByBlock
 62
    0
370
   -2
100
AcDbLine
 10
740.625
 20
38
 11
761.25
 21
38
  0
LINE
  5
DB
100
AcDbEntity
  8
length
  6
ByBlock
 62
    0
370
   -2
100
AcDbLine
 10
760
 20
0
 11
760
 21
38
  0
SOLID
  5
DC
100
AcDbEntity
  8
length
  6
ByBlock
 62
    0
370
   -2
100
AcDbTrace
 10
760
 20
0
 30
0
 11
757.5022920533629
 21
15
 31
0
 12
762.4977079466371
 22
15
 32
0
 13
762.4977079466371
 23
15
 33
0
  0
SOLID
  5
DD
100
AcDbEntity
  8
length
  6
ByBlock
 62
    0
370
   -2
100
AcDbTrace
 10
760
 20
38
 30
0
 11
762.4977079466371
 21
23
 31
0
 12
757.5022920533629
 22
23
 32
0
 13
757.5022920533629
 23
23
 33
0
  0
MTEXT
  5
DE
100
AcDbEntity
  8
length
  6
CONTINUOUS
 62
    0
370
   -2
100
AcDbMText
 10
749.375
 20
19
 30
0
 40
20
 41
24.44444444444569
 71
    5
 72
    1
  1
38
  7
standard
210
0
220
0
230
1
 50
90
 73
    2
 44
1
  0
ENDBLK
  5
7B
330
79
100
AcDbEntity
  8
0
100
AcDbBlockEnd
  0
BLOCK
  5
7D
330
7C
100
AcDbEntity
  8
0
100
AcDbBlockBegin
  2
*D10
 70
    1
 10
0
 20
0
  3
*D10
  1

  0
LINE
  5
DF
100
AcDbEntity
  8
length
  6
ByBlock
 62
    0
370
   -2
100
AcDbLine
 10
920.0000000000005
 20
2500.625
 11
920.0000000000005
 21
2521.25
  0
LINE
  5
E0
100
AcDbEntity
  8
length
  6
ByBlock
 62
    0
370
   -2
100
AcDbLine
 10
958.0000000000005
 20
2500.625
 11
958.0000000000005
 21
2521.25
  0
LINE
  5
E1
100
AcDbEntity
  8
length
  6
ByBlock
 62
    0
370
   -2
100
AcDbLine
 10
920.0000000000005
 20
2520
 11
958.0000000000005
 21
2520
  0
SOLID
  5
E2
100
AcDbEntity
  8
length
  6
ByBlock
 62
    0
370
   -2
100
AcDbTrace
 10
920.0000000000005
 20
2520
 30
0
 11
935.0000000000005
 21
2522.497707946637
 31
0
 12
935.0000000000005
 22
2517.502292053363
 32
0
 13
935.0000000000005
 23
2517.502292053363
 33
0
  0
SOLID
  5
E3
100
AcDbEntity
  8
length
  6
ByBlock
 62
    0
370
   -2
100
AcDbTrace
 10
958.0000000000005
 20
2520
 30
0
 11
943.0000000000005
 21
2517.502292053363
 31
0
 12
943.0000000000005
 22
2522.497707946637
 32
0
 13
943.0000000000005
 23
2522.497707946637
 33
0
  0
MTEXT
  5
E4
100
AcDbEntity
  8
length
  6
CONTINUOUS
 62
    0
370
   -2
100
AcDbMText
 10
939.0000000000005
 20
2530.625
 30
0
 40
20
 41
24.44444444444569
 71
    5
 72
    1
  1
38
  7
standard
210
0
220
0
230
1
 50
0
 73
    2
 44
1
  0
ENDBLK
  5
7E
330
7C
100
AcDbEntity
  8
0
100
AcDbBlockEnd
  0
BLOCK
  5
80
330
7F
100
AcDbEntity
  8
0
100
AcDbBlockBegin
  2
*D15
 70
    1
 10
0
 20
0
  3
*D15
  1

  0
LINE
  5
E5
100
AcDbEntity
  8
length
  6
ByBlock
 62
    0
370
   -2
100
AcDbLine
 10
-218.625
 20
2500
 11
-319.2500000000001
 21
2500
  0
LINE
  5
E6
100
AcDbEntity
  8
length
  6
ByBlock
 62
    0
370
   -2
100
AcDbLine
 10
-218.625
 20
7.654042494670958e-17
 11
-319.2500000000001
 21
1.239954884136697e-14
  0
LINE
  5
E7
100
AcDbEntity
  8
length
  6
ByBlock
 62
    0
370
   -2
100
AcDbLine
 10
-318.0000000000001
 20
2500
 11
-318.0000000000001
 21
1.224646799147355e-14
  0
SOLID
  5
E8
100
AcDbEntity
  8
length
  6
ByBlock
 62
    0
370
   -2
100
AcDbTrace
 10
-318.0000000000001
 20
2500
 30
0
 11
-315.5022920533631
 21
2485
 31
0
 12
-320.4977079466371
 22
2485
 32
0
 13
-320.4977079466371
 23
2485
 33
0
  0
SOLID
  5
E9
100
AcDbEntity
  8
length
  6
ByBlock
 62
    0
370
   -2
100
AcDbTrace
 10
-318.0000000000001
 20
1.224646799147355e-14
 30
0
 11
-320.4977079466371
 21
15.00000000000001
 31
0
 12
-315.5022920533631
 22
15.00000000000001
 32
0
 13
-315.5022920533631
 23
15.00000000000001
 33
0
  0
MTEXT
  5
EA
100
AcDbEntity
  8
length
  6
CONTINUOUS
 62
    0
370
   -2
100
AcDbMText
 10
-328.6250000000001
 20
1250
 30
0
 40
20
 41
55.55555555555681
 71
    5
 72
    1
  1
2500
  7
standard
210
0
220
0
230
1
 50
90
 73
    2
 44
1
  0
ENDBLK
  5
81
330
7F
100
AcDbEntity
  8
0
100
AcDbBlockEnd
  0
BLOCK
  5
83
330
82
100
AcDbEntity
  8
0
100
AcDbBlockBegin
  2
*D1
 70
    1
 10
0
 20
0
  3
*D1
  1

  0
LINE
  5
EB
100
AcDbEntity
  8
length
  6
ByBlock
 62
    0
370
   -2
100
AcDbLine
 10
400
 20
2500.625
 11
400
 21
2541.25
  0
LINE
  5
EC
100
AcDbEntity
  8
length
  6
ByBlock
 62
    0
370
   -2
100
AcDbLine
 10
740
 20
2500.625
 11
740
 21
2541.25
  0
LINE
  5
ED
100
AcDbEntity
  8
length
  6
ByBlock
 62
    0
370
   -2
100
AcDbLine
 10
400
 20
2540
 11
740
 21
2540
  0
SOLID
  5
EE
100
AcDbEntity
  8
length
  6
ByBlock
 62
    0
370
   -2
100
AcDbTrace
 10
400
 20
2540
 30
0
 11
415
 21
2542.497707946637
 31
0
 12
415
 22
2537.502292053363
 32
0
 13
415
 23
2537.502292053363
 33
0
  0
SOLID
  5
EF
100
AcDbEntity
  8
length
  6
ByBlock
 62
    0
370
   -2
100
AcDbTrace
 10
740
 20
2540
 30
0
 11
725
 21
2537.502292053363
 31
0
 12
725
 22
2542.497707946637
 32
0
 13
725
 23
2542.497707946637
 33
0
  0
MTEXT
  5
F0
100
AcDbEntity
  8
length
  6
CONTINUOUS
 62
    0
370
   -2
100
AcDbMText
 10
570
 20
2550.625
 30
0
 40
20
 41
42.22222222222346
 71
    5
 72
    1
  1
340
  7
standard
210
0
220
0
230
1
 50
0
 73
    2
 44
1
  0
ENDBLK
  5
84
330
82
100
AcDbEntity
  8
0
100
AcDbBlockEnd
  0
ENDSEC
  0
SECTION
  2
ENTITIES
  0
LINE
  5
F1
100
AcDbEntity
  8
0
  6
ByLayer
 62
  256
370
   -1
100
AcDbLine
 10
740
 20
2500
 11
400
 21
2500
  0
LINE
  5
F2
100
AcDbEntity
  8
0
  6
ByLayer
 62
  256
370
   -1
100
AcDbLine
 10
718
 20
0
 11
718
 21
38
  0
LINE
  5
F3
100
AcDbEntity
  8
0
  6
ByLayer
 62
  256
370
   -1
100
AcDbLine
 10
718
 20
38
 11
740
 21
38
  0
LINE
  5
F4
100
AcDbEntity
  8
0
  6
ByLayer
 62
  256
370
   -1
100
AcDbLine
 10
740
 20
2500
 11
740
 21
38
  0
LINE
  5
F5
100
AcDbEntity
  8
0
  6
ByLayer
 62
  256
370
   -1
100
AcDbLine
 10
400
 20
2190
 11
450
 21
2190
  0
LINE
  5
F6
100
AcDbEntity
  8
0
  6
ByLayer
 62
  256
370
   -1
100
AcDbLine
 10
472
 20
0
 11
472
 21
38
  0
LINE
  5
F7
100
AcDbEntity
  8
0
  6
ByLayer
 62
  256
370
   -1
100
AcDbLine
 10
472
 20
38
 11
450
 21
38
  0
LINE
  5
F8
100
AcDbEntity
  8
0
  6
ByLayer
 62
  256
370
   -1
100
AcDbLine
 10
450
 20
2190
 11
450
 21
38
  0
LINE
  5
F9
100
AcDbEntity
  8
0
  6
ByLayer
 62
  256
370
   -1
100
AcDbLine
 10
472
 20
0
 11
718
 21
0
  0
LINE
  5
FA
100
AcDbEntity
  8
0
  6
ByLayer
 62
  256
370
   -1
100
AcDbLine
 10
400
 20
2500
 11
400
 21
2190
  0
MTEXT
  5
FB
100
AcDbEntity
  8
quantities
  6
ByLayer
 62
  256
370
   -1
100
AcDbMText
 10
400
 20
2600
 30
0
 40
32
 41
39.11111111111111
 71
    1
 72
    1
  1
x2
  7
standard
210
0
220
0
230
1
 50
0
 73
    2
 44
1
  0
DIMENSION
  5
FC
100
AcDbEntity
  8
length
  6
ByLayer
 62
  256
370
   -1
100
AcDbDimension
  2
*D1
 10
740
 20
2540
 30
0
 11
570
 21
2550.625
 31
0
 70
   33
 71
    5
 72
    0
  3
Standard
 53
0
210
0
220
0
230
1
100
AcDbAlignedDimension
 13
400
 23
2500
 33
0
 14
740
 24
2500
 34
0
  0
DIMENSION
  5
FD
100
AcDbEntity
  8
length
  6
ByLayer
 62
  256
370
   -1
100
AcDbDimension
  2
*D2
 10
450
 20
2210
 30
0
 11
425
 21
2220.625
 31
0
 70
   33
 71
    5
 72
    0
  3
Standard
 53
0
210
0
220
0
230
1
100
AcDbAlignedDimension
 13
400
 23
2190
 33
0
 14
450
 24
2190
 34
0
  0
DIMENSION
  5
FE
100
AcDbEntity
  8
length
  6
ByLayer
 62
  256
370
   -1
100
AcDbDimension
  2
*D3
 10
472
 20
-40
 30
0
 11
461
 21
-29.375
 31
0
 70
   33
 71
    5
 72
    0
  3
Standard
 53
0
210
0
220
0
230
1
100
AcDbAlignedDimension
 13
450
 23
0
 33
0
 14
472
 24
0
 34
0
  0
DIMENSION
  5
FF
100
AcDbEntity
  8
length
  6
ByLayer
 62
  256
370
   -1
100
AcDbDimension
  2
*D4
 10
718
 20
-40
 30
0
 11
729
 21
-29.375
 31
0
 70
   33
 71
    5
 72
    0
  3
Standard
 53
0
210
0
220
0
230
1
100
AcDbAlignedDimension
 13
740
 23
0
 33
0
 14
718
 24
0
 34
0
  0
DIMENSION
  5
100
100
AcDbEntity
  8
length
  6
ByLayer
 62
  256
370
   -1
100
AcDbDimension
  2
*D5
 10
760
 20
38
 30
0
 11
749.375
 21
19
 31
0
 70
   33
 71
    5
 72
    0
  3
Standard
 53
0
210
0
220
0
230
1
100
AcDbAlignedDimension
 13
740
 23
0
 33
0
 14
740
 24
38
 34
0
  0
DIMENSION
  5
101
100
AcDbEntity
  8
length
  6
ByLayer
 62
  256
370
   -1
100
AcDbDimension
  2
*D6
 10
299.9999999999999
 20
2.449293598294708e-14
 30
0
 11
289.3749999999999
 21
1250
 31
0
 70
   33
 71
    5
  3
Standard
 53
0
210
0
220
0
230
1
100
AcDbAlignedDimension
 13
400
 23
2500
 33
0
 14
400
 24
0
 34
0
  0
DIMENSION
  5
102
100
AcDbEntity
  8
length
  6
ByLayer
 62
  256
370
   -1
100
AcDbDimension
  2
*D7
 10
339.9999999999997
 20
1.469576158976831e-14
 30
0
 11
329.3749999999997
 21
1095
 31
0
 70
   33
 71
    5
  3
Standard
 53
0
210
0
220
0
230
1
100
AcDbAlignedDimension
 13
400
 23
2190
 33
0
 14
400
 24
0
 34
0
  0
DIMENSION
  5
103
100
AcDbEntity
  8
length
  6
ByLayer
 62
  256
370
   -1
100
AcDbDimension
  2
*D8
 10
430
 20
38
 30
0
 11
419.375
 21
19
 31
0
 70
   33
 71
    5
  3
Standard
 53
0
210
0
220
0
230
1
100
AcDbAlignedDimension
 13
450
 23
0
 33
0
 14
450
 24
38
 34
0
  0
LINE
  5
104
100
AcDbEntity
  8
0
  6
ByLayer
 62
  256
370
   -1
100
AcDbLine
 10
920.0000000000005
 20
2500
 11
958.0000000000005
 21
2500
  0
LINE
  5
105
100
AcDbEntity
  8
0
  6
ByLayer
 62
  256
370
   -1
100
AcDbLine
 10
958.0000000000005
 20
2500
 11
958.0000000000005
 21
-4.898587196589488e-15
  0
LINE
  5
106
100
AcDbEntity
  8
0
  6
ByLayer
 62
  256
370
   -1
100
AcDbLine
 10
920.0000000000005
 20
-4.898587196589488e-15
 11
920.0000000000005
 21
2500
  0
DIMENSION
  5
107
100
AcDbEntity
  8
length
  6
ByLayer
 62
  256
370
   -1
100
AcDbDimension
  2
*D9
 10
900
 20
-9.797174393178979e-15
 30
0
 11
889.375
 21
1250
 31
0
 70
   33
 71
    5
  3
Standard
 53
0
210
0
220
0
230
1
100
AcDbAlignedDimension
 13
920.0000000000005
 23
2500
 33
0
 14
920.0000000000005
 24
-4.898587196589488e-15
 34
0
  0
DIMENSION
  5
108
100
AcDbEntity
  8
length
  6
ByLayer
 62
  256
370
   -1
100
AcDbDimension
  2
*D10
 10
958.0000000000005
 20
2520
 30
0
 11
939.0000000000005
 21
2530.625
 31
0
 70
   33
 71
    5
  3
Standard
 53
0
210
0
220
0
230
1
100
AcDbAlignedDimension
 13
920.0000000000005
 23
2500
 33
0
 14
958.0000000000005
 24
2500
 34
0
  0
MTEXT
  5
109
100
AcDbEntity
  8
quantities
  6
ByLayer
 62
  256
370
   -1
100
AcDbMText
 10
920.0000000000005
 20
2600
 30
0
 40
32
 41
39.1111111111131
 71
    1
 72
    1
  1
x5
  7
standard
210
0
220
0
230
1
 50
0
 73
    2
 44
1
  0
LINE
  5
10A
100
AcDbEntity
  8
0
  6
ByLayer
 62
  256
370
   -1
100
AcDbLine
 10
920.0000000000005
 20
-4.898587196589488e-15
 11
958.0000000000005
 21
-4.898587196589488e-15
  0
LINE
  5
10B
100
AcDbEntity
  8
0
  6
ByLayer
 62
  256
370
   -1
100
AcDbLine
 10
1080
 20
2400
 11
1420
 21
2400
  0
LINE
  5
10C
100
AcDbEntity
  8
0
  6
ByLayer
 62
  256
370
   -1
100
AcDbLine
 10
1080
 20
-4.898587196589488e-15
 11
1420
 21
-4.898587196589488e-15
  0
LINE
  5
10D
100
AcDbEntity
  8
0
  6
ByLayer
 62
  256
370
   -1
100
AcDbLine
 10
1420
 20
-4.898587196589488e-15
 11
1420
 21
2400
  0
LINE
  5
10E
100
AcDbEntity
  8
0
  6
ByLayer
 62
  256
370
   -1
100
AcDbLine
 10
1080
 20
2400
 11
1080
 21
-4.898587196589488e-15
  0
MTEXT
  5
10F
100
AcDbEntity
  8
quantities
  6
ByLayer
 62
  256
370
   -1
100
AcDbMText
 10
1080
 20
2500
 30
0
 40
32
 41
32
 71
    1
 72
    1
  1
x1
  7
standard
210
0
220
0
230
1
 50
0
 73
    2
 44
1
  0
DIMENSION
  5
110
100
AcDbEntity
  8
length
  6
ByLayer
 62
  256
370
   -1
100
AcDbDimension
  2
*D11
 10
1060
 20
-9.797174393178976e-15
 30
0
 11
1049.375
 21
1200
 31
0
 70
   33
 71
    5
 72
    0
  3
Standard
 53
0
210
0
220
0
230
1
100
AcDbAlignedDimension
 13
1080
 23
2400
 33
0
 14
1080
 24
-4.898587196589488e-15
 34
0
  0
DIMENSION
  5
111
100
AcDbEntity
  8
length
  6
ByLayer
 62
  256
370
   -1
100
AcDbDimension
  2
*D12
 10
1420
 20
2440
 30
0
 11
1250
 21
2450.625
 31
0
 70
   33
 71
    5
 72
    0
  3
Standard
 53
0
210
0
220
0
230
1
100
AcDbAlignedDimension
 13
1080
 23
2400
 33
0
 14
1420
 24
2400
 34
0
  0
LWPOLYLINE
  5
112
100
AcDbEntity
  8
0
  6
ByLayer
 62
  256
370
   -1
100
AcDbPolyline
 90
    4
 70
    1
 43
0
 10
1600
 20
0
 10
1940
 20
0
 10
1940
 20
1504
 10
1600
 20
1504
  0
MTEXT
  5
113
100
AcDbEntity
  8
quantities
  6
ByLayer
 62
  256
370
   -1
100
AcDbMText
 10
1600
 20
1600
 30
0
 40
32
 41
32
 71
    1
 72
    1
  1
x1
  7
standard
210
0
220
0
230
1
 50
0
 73
    2
 44
1
  0
DIMENSION
  5
114
100
AcDbEntity
  8
length
  6
ByLayer
 62
  256
370
   -1
100
AcDbDimension
  2
*D13
 10
1580
 20
4.898587196589464e-15
 30
0
 11
1569.375
 21
752
 31
0
 70
   33
 71
    5
 72
    0
  3
Standard
 53
0
210
0
220
0
230
1
100
AcDbAlignedDimension
 13
1600
 23
1504
 33
0
 14
1600
 24
0
 34
0
  0
DIMENSION
  5
115
100
AcDbEntity
  8
length
  6
ByLayer
 62
  256
370
   -1
100
AcDbDimension
  2
*D14
 10
1940
 20
1530
 30
0
 11
1770
 21
1540.625
 31
0
 70
   33
 71
    5
 72
    0
  3
Standard
 53
0
210
0
220
0
230
1
100
AcDbAlignedDimension
 13
1600
 23
1504
 33
0
 14
1940
 24
1504
 34
0
  0
LINE
  5
116
100
AcDbEntity
  8
0
  6
ByLayer
 62
  256
370
   -1
100
AcDbLine
 10
100
 20
0
 11
100
 21
38
  0
LINE
  5
117
100
AcDbEntity
  8
0
  6
ByLayer
 62
  256
370
   -1
100
AcDbLine
 10
100
 20
38
 11
122
 21
38
  0
LINE
  5
118
100
AcDbEntity
  8
0
  6
ByLayer
 62
  256
370
   -1
100
AcDbLine
 10
122
 20
2500
 11
-218
 21
2500
  0
LINE
  5
119
100
AcDbEntity
  8
0
  6
ByLayer
 62
  256
370
   -1
100
AcDbLine
 10
122
 20
2500
 11
122
 21
38
  0
MTEXT
  5
11A
100
AcDbEntity
  8
quantities
  6
ByLayer
 62
  256
370
   -1
100
AcDbMText
 10
-218
 20
2600
 30
0
 40
32
 41
39.1111111111131
 71
    1
 72
    1
  1
x5
  7
standard
210
0
220
0
230
1
 50
0
 73
    2
 44
1
  0
DIMENSION
  5
11B
100
AcDbEntity
  8
length
  6
ByLayer
 62
  256
370
   -1
100
AcDbDimension
  2
*D15
 10
-318.0000000000001
 20
2.449293598294708e-14
 30
0
 11
-328.6250000000001
 21
1250
 31
0
 70
   33
 71
    5
 72
    0
  3
Standard
 53
0
210
0
220
0
230
1
100
AcDbAlignedDimension
 13
-218
 23
2500
 33
0
 14
-218
 24
0
 34
0
  0
DIMENSION
  5
11C
100
AcDbEntity
  8
length
  6
ByLayer
 62
  256
370
   -1
100
AcDbDimension
  2
*D16
 10
122
 20
2540
 30
0
 11
-48
 21
2550.625
 31
0
 70
   33
 71
    5
 72
    0
  3
Standard
 53
0
210
0
220
0
230
1
100
AcDbAlignedDimension
 13
-218
 23
2500
 33
0
 14
122
 24
2500
 34
0
  0
DIMENSION
  5
11D
100
AcDbEntity
  8
length
  6
ByLayer
 62
  256
370
   -1
100
AcDbDimension
  2
*D17
 10
122
 20
-40
 30
0
 11
111
 21
-29.375
 31
0
 70
   33
 71
    5
 72
    0
  3
Standard
 53
0
210
0
220
0
230
1
100
AcDbAlignedDimension
 13
100
 23
0
 33
0
 14
122
 24
0
 34
0
  0
DIMENSION
  5
11E
100
AcDbEntity
  8
length
  6
ByLayer
 62
  256
370
   -1
100
AcDbDimension
  2
*D18
 10
142
 20
38
 30
0
 11
131.375
 21
19
 31
0
 70
   33
 71
    5
 72
    0
  3
Standard
 53
0
210
0
220
0
230
1
100
AcDbAlignedDimension
 13
122
 23
0
 33
0
 14
122
 24
38
 34
0
  0
LINE
  5
11F
100
AcDbEntity
  8
0
  6
ByLayer
 62
  256
370
   -1
100
AcDbLine
 10
-218
 20
0
 11
100
 21
0
  0
LINE
  5
120
100
AcDbEntity
  8
0
  6
ByLayer
 62
  256
370
   -1
100
AcDbLine
 10
-218
 20
2500
 11
-218
 21
0
  0
ENDSEC
  0
SECTION
  2
OBJECTS
  0
DICTIONARY
  5
C
330
0
100
AcDbDictionary
281
    1
  3
ACAD_GROUP
350
D
  0
DICTIONARY
  5
D
330
C
100
AcDbDictionary
281
    1
  0
ENDSEC
  0
EOF
