solid meuble_SDB_ArnaudSarah
facet normal 0.0 0.0 -1.0
  outer loop
    vertex 473.41469825086835 774.7748554608551 0.0
    vertex 448.41469825086835 549.7748554608551 0.0
    vertex 448.41469825086835 784.074855460855 0.0
  endloop
endfacet
facet normal 0.0 0.0 -1.0
  outer loop
    vertex 448.41469825086835 549.7748554608551 0.0
    vertex 473.41469825086835 774.7748554608551 0.0
    vertex 473.41469825086835 549.7748554608551 0.0
  endloop
endfacet
facet normal -0.0 -0.0 1.0
  outer loop
    vertex 473.41469825086835 549.7748554608551 700.0
    vertex 448.41469825086835 784.074855460855 700.0
    vertex 448.41469825086835 549.7748554608551 700.0
  endloop
endfacet
facet normal -0.0 -0.0 1.0
  outer loop
    vertex 448.41469825086835 784.074855460855 700.0
    vertex 473.41469825086835 549.7748554608551 700.0
    vertex 473.41469825086835 774.7748554608551 700.0
  endloop
endfacet
facet normal 0.3486571279312131 0.9372503439011146 4.3882043685664173e-20
  outer loop
    vertex 448.41469825086835 784.074855460855 700.0
    vertex 473.41469825086835 774.7748554608551 0.0
    vertex 448.41469825086835 784.074855460855 0.0
  endloop
endfacet
facet normal 0.3486571279312131 0.9372503439011146 4.3882043685664173e-20
  outer loop
    vertex 473.41469825086835 774.7748554608551 0.0
    vertex 448.41469825086835 784.074855460855 700.0
    vertex 473.41469825086835 774.7748554608551 25.0
  endloop
endfacet
facet normal 0.3486571279312131 0.9372503439011146 4.3882043685664173e-20
  outer loop
    vertex 473.41469825086835 774.7748554608551 25.0
    vertex 448.41469825086835 784.074855460855 700.0
    vertex 473.41469825086835 774.7748554608551 236.31091877356295
  endloop
endfacet
facet normal 0.3486571279312131 0.9372503439011146 4.3882043685664173e-20
  outer loop
    vertex 473.41469825086835 774.7748554608551 236.31091877356295
    vertex 448.41469825086835 784.074855460855 700.0
    vertex 473.41469825086835 774.7748554608551 248.81091877356295
  endloop
endfacet
facet normal 0.3486571279312131 0.9372503439011146 4.3882043685664173e-20
  outer loop
    vertex 473.41469825086835 774.7748554608551 248.81091877356295
    vertex 448.41469825086835 784.074855460855 700.0
    vertex 473.41469825086835 774.7748554608551 432.96300112932965
  endloop
endfacet
facet normal 0.3486571279312131 0.9372503439011146 4.3882043685664173e-20
  outer loop
    vertex 473.41469825086835 774.7748554608551 432.96300112932965
    vertex 448.41469825086835 784.074855460855 700.0
    vertex 473.41469825086835 774.7748554608551 445.4630011293296
  endloop
endfacet
facet normal 0.3486571279312131 0.9372503439011146 4.3882043685664173e-20
  outer loop
    vertex 473.41469825086835 774.7748554608551 445.4630011293296
    vertex 448.41469825086835 784.074855460855 700.0
    vertex 473.41469825086835 774.7748554608551 675.0
  endloop
endfacet
facet normal 0.3486571279312131 0.9372503439011146 4.3882043685664173e-20
  outer loop
    vertex 473.41469825086835 774.7748554608551 675.0
    vertex 448.41469825086835 784.074855460855 700.0
    vertex 473.41469825086835 774.7748554608551 700.0
  endloop
endfacet
facet normal 0.0 0.0 -1.0
  outer loop
    vertex 948.4146982508684 597.3748554608551 0.0
    vertex 923.4146982508682 549.7748554608551 0.0
    vertex 923.4146982508682 607.7748554608551 0.0
  endloop
endfacet
facet normal 0.0 0.0 -1.0
  outer loop
    vertex 923.4146982508682 549.7748554608551 0.0
    vertex 948.4146982508684 597.3748554608551 0.0
    vertex 948.4146982508684 549.7748554608551 0.0
  endloop
endfacet
facet normal -0.0 -0.0 1.0
  outer loop
    vertex 948.4146982508684 549.7748554608551 700.0
    vertex 923.4146982508682 607.7748554608551 700.0
    vertex 923.4146982508682 549.7748554608551 700.0
  endloop
endfacet
facet normal -0.0 -0.0 1.0
  outer loop
    vertex 923.4146982508682 607.7748554608551 700.0
    vertex 948.4146982508684 549.7748554608551 700.0
    vertex 948.4146982508684 597.3748554608551 700.0
  endloop
endfacet
facet normal 0.3840908470927771 0.9232953055114885 1.1383549515860392e-18
  outer loop
    vertex 923.4146982508682 607.7748554608551 25.0
    vertex 948.4146982508684 597.3748554608551 0.0
    vertex 923.4146982508682 607.7748554608551 0.0
  endloop
endfacet
facet normal 0.3840908470927771 0.9232953055114885 1.1383549515860392e-18
  outer loop
    vertex 948.4146982508684 597.3748554608551 0.0
    vertex 923.4146982508682 607.7748554608551 25.0
    vertex 948.4146982508684 597.3748554608551 700.0
  endloop
endfacet
facet normal 0.3840908470927771 0.9232953055114885 1.1383549515860392e-18
  outer loop
    vertex 948.4146982508684 597.3748554608551 700.0
    vertex 923.4146982508682 607.7748554608551 25.0
    vertex 923.4146982508682 607.7748554608551 236.31091877356295
  endloop
endfacet
facet normal 0.3840908470927771 0.9232953055114885 1.1383549515860392e-18
  outer loop
    vertex 948.4146982508684 597.3748554608551 700.0
    vertex 923.4146982508682 607.7748554608551 236.31091877356295
    vertex 923.4146982508682 607.7748554608551 248.81091877356295
  endloop
endfacet
facet normal 0.3840908470927771 0.9232953055114885 1.1383549515860392e-18
  outer loop
    vertex 948.4146982508684 597.3748554608551 700.0
    vertex 923.4146982508682 607.7748554608551 248.81091877356295
    vertex 923.4146982508682 607.7748554608551 432.96300112932965
  endloop
endfacet
facet normal 0.3840908470927771 0.9232953055114885 1.1383549515860392e-18
  outer loop
    vertex 948.4146982508684 597.3748554608551 700.0
    vertex 923.4146982508682 607.7748554608551 432.96300112932965
    vertex 923.4146982508682 607.7748554608551 445.4630011293296
  endloop
endfacet
facet normal 0.3840908470927771 0.9232953055114885 1.1383549515860392e-18
  outer loop
    vertex 948.4146982508684 597.3748554608551 700.0
    vertex 923.4146982508682 607.7748554608551 445.4630011293296
    vertex 923.4146982508682 607.7748554608551 675.0
  endloop
endfacet
facet normal 0.3840908470927771 0.9232953055114885 1.1383549515860392e-18
  outer loop
    vertex 948.4146982508684 597.3748554608551 700.0
    vertex 923.4146982508682 607.7748554608551 675.0
    vertex 923.4146982508682 607.7748554608551 700.0
  endloop
endfacet
facet normal -0.0 -0.0 1.0
  outer loop
    vertex 923.4146982508682 549.7748554608551 25.0
    vertex 473.41469825086835 774.7748554608551 25.0
    vertex 473.41469825086835 549.7748554608551 25.0
  endloop
endfacet
facet normal -0.0 -0.0 1.0
  outer loop
    vertex 473.41469825086835 774.7748554608551 25.0
    vertex 923.4146982508682 549.7748554608551 25.0
    vertex 923.4146982508682 607.7748554608551 25.0
  endloop
endfacet
facet normal 0.3479249722664417 0.9375223803586749 -0.0
  outer loop
    vertex 473.41469825086835 774.7748554608551 25.0
    vertex 923.4146982508682 607.7748554608551 0.0
    vertex 473.41469825086835 774.7748554608551 0.0
  endloop
endfacet
facet normal 0.3479249722664417 0.9375223803586749 -0.0
  outer loop
    vertex 923.4146982508682 607.7748554608551 0.0
    vertex 473.41469825086835 774.7748554608551 25.0
    vertex 923.4146982508682 607.7748554608551 25.0
  endloop
endfacet
facet normal 0.0 0.0 -1.0
  outer loop
    vertex 923.4146982508682 607.7748554608551 675.0
    vertex 473.41469825086835 549.7748554608551 675.0
    vertex 473.41469825086835 774.7748554608551 675.0
  endloop
endfacet
facet normal 0.0 0.0 -1.0
  outer loop
    vertex 473.41469825086835 549.7748554608551 675.0
    vertex 923.4146982508682 607.7748554608551 675.0
    vertex 923.4146982508682 549.7748554608551 675.0
  endloop
endfacet
facet normal 0.0 -1.0 0.0
  outer loop
    vertex 923.4146982508682 549.7748554608551 700.0
    vertex 473.41469825086835 549.7748554608551 675.0
    vertex 923.4146982508682 549.7748554608551 675.0
  endloop
endfacet
facet normal 0.0 -1.0 0.0
  outer loop
    vertex 473.41469825086835 549.7748554608551 675.0
    vertex 923.4146982508682 549.7748554608551 700.0
    vertex 473.41469825086835 549.7748554608551 700.0
  endloop
endfacet
facet normal -0.0 -0.0 1.0
  outer loop
    vertex 923.4146982508682 549.7748554608551 700.0
    vertex 473.41469825086835 774.7748554608551 700.0
    vertex 473.41469825086835 549.7748554608551 700.0
  endloop
endfacet
facet normal -0.0 -0.0 1.0
  outer loop
    vertex 473.41469825086835 774.7748554608551 700.0
    vertex 923.4146982508682 549.7748554608551 700.0
    vertex 923.4146982508682 607.7748554608551 700.0
  endloop
endfacet
facet normal 0.3479249722664417 0.9375223803586749 -1.674796815075061e-29
  outer loop
    vertex 473.41469825086835 774.7748554608551 700.0
    vertex 923.4146982508682 607.7748554608551 675.0
    vertex 473.41469825086835 774.7748554608551 675.0
  endloop
endfacet
facet normal 0.3479249722664417 0.9375223803586749 -1.674796815075061e-29
  outer loop
    vertex 923.4146982508682 607.7748554608551 675.0
    vertex 473.41469825086835 774.7748554608551 700.0
    vertex 923.4146982508682 607.7748554608551 700.0
  endloop
endfacet
facet normal 0.0 0.0 -1.0
  outer loop
    vertex 923.4146982508682 607.7748554608551 0.0
    vertex 473.41469825086835 549.7748554608551 0.0
    vertex 473.41469825086835 774.7748554608551 0.0
  endloop
endfacet
facet normal 0.0 0.0 -1.0
  outer loop
    vertex 473.41469825086835 549.7748554608551 0.0
    vertex 923.4146982508682 607.7748554608551 0.0
    vertex 923.4146982508682 549.7748554608551 0.0
  endloop
endfacet
facet normal 0.0 -1.0 0.0
  outer loop
    vertex 473.41469825086835 549.7748554608551 25.0
    vertex 448.41469825086835 549.7748554608551 0.0
    vertex 473.41469825086835 549.7748554608551 0.0
  endloop
endfacet
facet normal 0.0 -1.0 0.0
  outer loop
    vertex 448.41469825086835 549.7748554608551 0.0
    vertex 473.41469825086835 549.7748554608551 25.0
    vertex 448.41469825086835 549.7748554608551 700.0
  endloop
endfacet
facet normal 0.0 -1.0 0.0
  outer loop
    vertex 448.41469825086835 549.7748554608551 700.0
    vertex 473.41469825086835 549.7748554608551 25.0
    vertex 473.41469825086835 549.7748554608551 236.31091877356295
  endloop
endfacet
facet normal 0.0 -1.0 0.0
  outer loop
    vertex 448.41469825086835 549.7748554608551 700.0
    vertex 473.41469825086835 549.7748554608551 236.31091877356295
    vertex 473.41469825086835 549.7748554608551 248.81091877356295
  endloop
endfacet
facet normal 0.0 -1.0 0.0
  outer loop
    vertex 448.41469825086835 549.7748554608551 700.0
    vertex 473.41469825086835 549.7748554608551 248.81091877356295
    vertex 473.41469825086835 549.7748554608551 432.96300112932965
  endloop
endfacet
facet normal 0.0 -1.0 0.0
  outer loop
    vertex 448.41469825086835 549.7748554608551 700.0
    vertex 473.41469825086835 549.7748554608551 432.96300112932965
    vertex 473.41469825086835 549.7748554608551 445.4630011293296
  endloop
endfacet
facet normal 0.0 -1.0 0.0
  outer loop
    vertex 448.41469825086835 549.7748554608551 700.0
    vertex 473.41469825086835 549.7748554608551 445.4630011293296
    vertex 473.41469825086835 549.7748554608551 675.0
  endloop
endfacet
facet normal 0.0 -1.0 0.0
  outer loop
    vertex 448.41469825086835 549.7748554608551 700.0
    vertex 473.41469825086835 549.7748554608551 675.0
    vertex 473.41469825086835 549.7748554608551 700.0
  endloop
endfacet
facet normal 0.0 -1.0 0.0
  outer loop
    vertex 923.4146982508682 549.7748554608551 25.0
    vertex 473.41469825086835 549.7748554608551 0.0
    vertex 923.4146982508682 549.7748554608551 0.0
  endloop
endfacet
facet normal 0.0 -1.0 0.0
  outer loop
    vertex 473.41469825086835 549.7748554608551 0.0
    vertex 923.4146982508682 549.7748554608551 25.0
    vertex 473.41469825086835 549.7748554608551 25.0
  endloop
endfacet
facet normal 1.0 -0.0 -0.0
  outer loop
    vertex 948.4146982508684 597.3748554608551 0.0
    vertex 948.4146982508684 549.7748554608551 700.0
    vertex 948.4146982508684 549.7748554608551 0.0
  endloop
endfacet
facet normal 1.0 -0.0 -0.0
  outer loop
    vertex 948.4146982508684 549.7748554608551 700.0
    vertex 948.4146982508684 597.3748554608551 0.0
    vertex 948.4146982508684 597.3748554608551 700.0
  endloop
endfacet
facet normal -1.0 0.0 0.0
  outer loop
    vertex 923.4146982508682 607.7748554608551 248.81091877356295
    vertex 923.4146982508682 549.7748554608551 236.31091877356295
    vertex 923.4146982508682 549.7748554608551 248.81091877356295
  endloop
endfacet
facet normal -1.0 0.0 0.0
  outer loop
    vertex 923.4146982508682 549.7748554608551 236.31091877356295
    vertex 923.4146982508682 607.7748554608551 248.81091877356295
    vertex 923.4146982508682 549.7748554608551 25.0
  endloop
endfacet
facet normal -1.0 0.0 0.0
  outer loop
    vertex 923.4146982508682 549.7748554608551 25.0
    vertex 923.4146982508682 607.7748554608551 248.81091877356295
    vertex 923.4146982508682 607.7748554608551 25.0
  endloop
endfacet
facet normal -1.0 0.0 0.0
  outer loop
    vertex 923.4146982508682 607.7748554608551 25.0
    vertex 923.4146982508682 607.7748554608551 248.81091877356295
    vertex 923.4146982508682 607.7748554608551 236.31091877356295
  endloop
endfacet
facet normal -1.0 0.0 0.0
  outer loop
    vertex 923.4146982508682 607.7748554608551 700.0
    vertex 923.4146982508682 549.7748554608551 675.0
    vertex 923.4146982508682 549.7748554608551 700.0
  endloop
endfacet
facet normal -1.0 0.0 0.0
  outer loop
    vertex 923.4146982508682 549.7748554608551 675.0
    vertex 923.4146982508682 607.7748554608551 700.0
    vertex 923.4146982508682 607.7748554608551 675.0
  endloop
endfacet
facet normal -1.0 0.0 0.0
  outer loop
    vertex 923.4146982508682 607.7748554608551 25.0
    vertex 923.4146982508682 549.7748554608551 0.0
    vertex 923.4146982508682 549.7748554608551 25.0
  endloop
endfacet
facet normal -1.0 0.0 0.0
  outer loop
    vertex 923.4146982508682 549.7748554608551 0.0
    vertex 923.4146982508682 607.7748554608551 25.0
    vertex 923.4146982508682 607.7748554608551 0.0
  endloop
endfacet
facet normal -1.0 0.0 0.0
  outer loop
    vertex 448.41469825086835 784.074855460855 700.0
    vertex 448.41469825086835 549.7748554608551 0.0
    vertex 448.41469825086835 549.7748554608551 700.0
  endloop
endfacet
facet normal -1.0 0.0 0.0
  outer loop
    vertex 448.41469825086835 549.7748554608551 0.0
    vertex 448.41469825086835 784.074855460855 700.0
    vertex 448.41469825086835 784.074855460855 0.0
  endloop
endfacet
facet normal 1.0 -0.0 -0.0
  outer loop
    vertex 473.41469825086835 774.7748554608551 445.4630011293296
    vertex 473.41469825086835 549.7748554608551 675.0
    vertex 473.41469825086835 549.7748554608551 445.4630011293296
  endloop
endfacet
facet normal 1.0 -0.0 -0.0
  outer loop
    vertex 473.41469825086835 549.7748554608551 675.0
    vertex 473.41469825086835 774.7748554608551 445.4630011293296
    vertex 473.41469825086835 774.7748554608551 675.0
  endloop
endfacet
facet normal 1.0 -0.0 -0.0
  outer loop
    vertex 473.41469825086835 774.7748554608551 0.0
    vertex 473.41469825086835 549.7748554608551 25.0
    vertex 473.41469825086835 549.7748554608551 0.0
  endloop
endfacet
facet normal 1.0 -0.0 -0.0
  outer loop
    vertex 473.41469825086835 549.7748554608551 25.0
    vertex 473.41469825086835 774.7748554608551 0.0
    vertex 473.41469825086835 774.7748554608551 25.0
  endloop
endfacet
facet normal 1.0 -0.0 -0.0
  outer loop
    vertex 473.41469825086835 774.7748554608551 675.0
    vertex 473.41469825086835 549.7748554608551 700.0
    vertex 473.41469825086835 549.7748554608551 675.0
  endloop
endfacet
facet normal 1.0 -0.0 -0.0
  outer loop
    vertex 473.41469825086835 549.7748554608551 700.0
    vertex 473.41469825086835 774.7748554608551 675.0
    vertex 473.41469825086835 774.7748554608551 700.0
  endloop
endfacet
facet normal -0.7771459614569706 0.6293203910498377 3.5803219992917606e-33
  outer loop
    vertex 649.4875125021955 180.63052376879386 700.0
    vertex 633.7545027259496 161.2018747323696 0.0
    vertex 633.7545027259496 161.2018747323696 700.0
  endloop
endfacet
facet normal -0.7771459614569706 0.6293203910498377 3.5803219992917606e-33
  outer loop
    vertex 633.7545027259496 161.2018747323696 0.0
    vertex 649.4875125021955 180.63052376879386 700.0
    vertex 649.4875125021955 180.63052376879386 0.0
  endloop
endfacet
facet normal -0.7771459614569706 0.6293203910498377 3.5803219992917606e-33
  outer loop
    vertex 649.4875125021955 180.63052376879386 0.0
    vertex 649.4875125021955 180.63052376879386 700.0
    vertex 649.4875125021955 180.63052376879386 675.0
  endloop
endfacet
facet normal -0.7771459614569706 0.6293203910498377 3.5803219992917606e-33
  outer loop
    vertex 649.4875125021955 180.63052376879386 0.0
    vertex 649.4875125021955 180.63052376879386 675.0
    vertex 649.4875125021955 180.63052376879386 25.0
  endloop
endfacet
facet normal -0.6293203910498375 -0.7771459614569708 0.0
  outer loop
    vertex 653.1831517623739 145.46886495612364 700.0
    vertex 633.7545027259496 161.2018747323696 0.0
    vertex 653.1831517623739 145.46886495612364 0.0
  endloop
endfacet
facet normal -0.6293203910498375 -0.7771459614569708 0.0
  outer loop
    vertex 633.7545027259496 161.2018747323696 0.0
    vertex 653.1831517623739 145.46886495612364 700.0
    vertex 633.7545027259496 161.2018747323696 700.0
  endloop
endfacet
facet normal -0.7771459614569708 0.6293203910498375 6.025681924808036e-30
  outer loop
    vertex 932.6816884746223 530.3462064244308 700.0
    vertex 649.4875125021955 180.63052376879386 675.0
    vertex 649.4875125021955 180.63052376879386 700.0
  endloop
endfacet
facet normal -0.7771459614569708 0.6293203910498375 6.025681924808036e-30
  outer loop
    vertex 649.4875125021955 180.63052376879386 675.0
    vertex 932.6816884746223 530.3462064244308 700.0
    vertex 932.6816884746223 530.3462064244308 675.0
  endloop
endfacet
facet normal 0.0 0.0 -1.0
  outer loop
    vertex 948.2246077037618 517.759798603434 675.0
    vertex 668.9161615386198 164.8975139925479 675.0
    vertex 665.0304317313349 168.0441159477971 675.0
  endloop
endfacet
facet normal 0.0 0.0 -1.0
  outer loop
    vertex 668.9161615386198 164.8975139925479 675.0
    vertex 948.2246077037618 517.759798603434 675.0
    vertex 952.1103375110466 514.6131966481848 675.0
  endloop
endfacet
facet normal 0.7771459614569721 -0.6293203910498362 -8.686099967634167e-17
  outer loop
    vertex 967.8433472872925 534.0418456846093 0.0
    vertex 952.1103375110466 514.613196648185 25.0
    vertex 952.1103375110466 514.613196648185 0.0
  endloop
endfacet
facet normal 0.7771459614569721 -0.6293203910498362 -8.686099967634167e-17
  outer loop
    vertex 952.1103375110466 514.613196648185 25.0
    vertex 952.1103375110466 514.6131966481848 700.0
    vertex 952.1103375110466 514.6131966481848 675.0
  endloop
endfacet
facet normal 0.7771459614569721 -0.6293203910498362 -8.686099967634167e-17
  outer loop
    vertex 952.1103375110466 514.6131966481848 700.0
    vertex 952.1103375110466 514.613196648185 25.0
    vertex 967.8433472872925 534.0418456846093 700.0
  endloop
endfacet
facet normal 0.7771459614569721 -0.6293203910498362 -8.686099967634167e-17
  outer loop
    vertex 967.8433472872925 534.0418456846093 700.0
    vertex 952.1103375110466 514.613196648185 25.0
    vertex 967.8433472872925 534.0418456846093 0.0
  endloop
endfacet
facet normal 0.6293203910498368 0.7771459614569715 -4.942074413338804e-16
  outer loop
    vertex 649.4875125021955 180.63052376879386 700.0
    vertex 661.1447019240501 171.1907179030463 675.0
    vertex 649.4875125021955 180.63052376879386 675.0
  endloop
endfacet
facet normal 0.6293203910498368 0.7771459614569715 -4.942074413338804e-16
  outer loop
    vertex 661.1447019240501 171.1907179030463 675.0
    vertex 649.4875125021955 180.63052376879386 700.0
    vertex 665.0304317313349 168.0441159477971 675.0
  endloop
endfacet
facet normal 0.6293203910498368 0.7771459614569715 -4.942074413338804e-16
  outer loop
    vertex 665.0304317313349 168.0441159477971 675.0
    vertex 649.4875125021955 180.63052376879386 700.0
    vertex 668.9161615386198 164.8975139925479 675.0
  endloop
endfacet
facet normal 0.6293203910498368 0.7771459614569715 -4.942074413338804e-16
  outer loop
    vertex 668.9161615386198 164.8975139925479 675.0
    vertex 649.4875125021955 180.63052376879386 700.0
    vertex 668.9161615386198 164.8975139925479 700.0
  endloop
endfacet
facet normal 0.6293203910498368 0.7771459614569715 4.961763952834178e-16
  outer loop
    vertex 649.4875125021955 180.63052376879386 25.0
    vertex 668.9161615386198 164.8975139925479 0.0
    vertex 649.4875125021955 180.63052376879386 0.0
  endloop
endfacet
facet normal 0.6293203910498368 0.7771459614569715 4.961763952834178e-16
  outer loop
    vertex 668.9161615386198 164.8975139925479 0.0
    vertex 649.4875125021955 180.63052376879386 25.0
    vertex 668.9161615386198 164.8975139925479 25.0
  endloop
endfacet
facet normal 0.6293203910498368 0.7771459614569715 4.961763952834178e-16
  outer loop
    vertex 668.9161615386198 164.8975139925479 25.0
    vertex 649.4875125021955 180.63052376879386 25.0
    vertex 661.1447019240501 171.1907179030463 25.0
  endloop
endfacet
facet normal 0.6293203910498368 0.7771459614569715 4.961763952834178e-16
  outer loop
    vertex 668.9161615386198 164.8975139925479 25.0
    vertex 661.1447019240501 171.1907179030463 25.0
    vertex 665.0304317313349 168.0441159477971 25.0
  endloop
endfacet
facet normal -0.7771459614569708 0.6293203910498375 0.0
  outer loop
    vertex 932.6816884746223 530.3462064244308 25.0
    vertex 649.4875125021955 180.63052376879386 0.0
    vertex 649.4875125021955 180.63052376879386 25.0
  endloop
endfacet
facet normal -0.7771459614569708 0.6293203910498375 0.0
  outer loop
    vertex 649.4875125021955 180.63052376879386 0.0
    vertex 932.6816884746223 530.3462064244308 25.0
    vertex 932.6816884746223 530.3462064244308 0.0
  endloop
endfacet
facet normal 0.7771459614569709 -0.6293203910498374 0.0
  outer loop
    vertex 952.1103375110466 514.613196648185 0.0
    vertex 668.9161615386198 164.8975139925479 25.0
    vertex 668.9161615386198 164.8975139925479 0.0
  endloop
endfacet
facet normal 0.7771459614569709 -0.6293203910498374 0.0
  outer loop
    vertex 668.9161615386198 164.8975139925479 25.0
    vertex 952.1103375110466 514.613196648185 0.0
    vertex 952.1103375110466 514.613196648185 25.0
  endloop
endfacet
facet normal -0.6293203910498314 -0.7771459614569758 -5.388611234906866e-17
  outer loop
    vertex 952.1103375110466 514.6131966481848 675.0
    vertex 948.2246077037618 517.759798603434 25.0
    vertex 952.1103375110466 514.613196648185 25.0
  endloop
endfacet
facet normal -0.6293203910498314 -0.7771459614569758 -5.388611234906866e-17
  outer loop
    vertex 948.2246077037618 517.759798603434 25.0
    vertex 952.1103375110466 514.6131966481848 675.0
    vertex 948.2246077037618 517.759798603434 675.0
  endloop
endfacet
facet normal -0.6293203910498372 -0.777145961456971 -1.3395871070863926e-15
  outer loop
    vertex 952.1103375110466 514.613196648185 25.0
    vertex 932.6816884746223 530.3462064244308 0.0
    vertex 952.1103375110466 514.613196648185 0.0
  endloop
endfacet
facet normal -0.6293203910498372 -0.777145961456971 -1.3395871070863926e-15
  outer loop
    vertex 932.6816884746223 530.3462064244308 0.0
    vertex 952.1103375110466 514.613196648185 25.0
    vertex 932.6816884746223 530.3462064244308 25.0
  endloop
endfacet
facet normal -0.6293203910498372 -0.777145961456971 -1.3395871070863926e-15
  outer loop
    vertex 932.6816884746223 530.3462064244308 25.0
    vertex 952.1103375110466 514.613196648185 25.0
    vertex 948.2246077037618 517.759798603434 25.0
  endloop
endfacet
facet normal -0.6293203910498372 -0.777145961456971 -1.3395871070863926e-15
  outer loop
    vertex 932.6816884746223 530.3462064244308 25.0
    vertex 948.2246077037618 517.759798603434 25.0
    vertex 944.3388778964769 520.9064005586831 25.0
  endloop
endfacet
facet normal -0.0 -0.0 1.0
  outer loop
    vertex 952.1103375110466 514.6131966481848 700.0
    vertex 948.4146982508684 549.7748554608551 700.0
    vertex 932.6816884746223 530.3462064244308 700.0
  endloop
endfacet
facet normal -0.0 -0.0 1.0
  outer loop
    vertex 948.4146982508684 549.7748554608551 700.0
    vertex 952.1103375110466 514.6131966481848 700.0
    vertex 967.8433472872925 534.0418456846093 700.0
  endloop
endfacet
facet normal 0.0 0.0 -1.0
  outer loop
    vertex 932.6816884746223 530.3462064244308 0.0
    vertex 668.9161615386198 164.8975139925479 0.0
    vertex 649.4875125021955 180.63052376879386 0.0
  endloop
endfacet
facet normal 0.0 0.0 -1.0
  outer loop
    vertex 668.9161615386198 164.8975139925479 0.0
    vertex 932.6816884746223 530.3462064244308 0.0
    vertex 952.1103375110466 514.613196648185 0.0
  endloop
endfacet
facet normal -0.777145961456971 0.6293203910498374 0.0
  outer loop
    vertex 948.4146982508684 549.7748554608551 700.0
    vertex 932.6816884746223 530.3462064244308 675.0
    vertex 932.6816884746223 530.3462064244308 700.0
  endloop
endfacet
facet normal -0.777145961456971 0.6293203910498374 0.0
  outer loop
    vertex 932.6816884746223 530.3462064244308 675.0
    vertex 948.4146982508684 549.7748554608551 700.0
    vertex 932.6816884746223 530.3462064244308 25.0
  endloop
endfacet
facet normal -0.777145961456971 0.6293203910498374 0.0
  outer loop
    vertex 932.6816884746223 530.3462064244308 25.0
    vertex 948.4146982508684 549.7748554608551 700.0
    vertex 932.6816884746223 530.3462064244308 0.0
  endloop
endfacet
facet normal -0.777145961456971 0.6293203910498374 0.0
  outer loop
    vertex 932.6816884746223 530.3462064244308 0.0
    vertex 948.4146982508684 549.7748554608551 700.0
    vertex 948.4146982508684 549.7748554608551 0.0
  endloop
endfacet
facet normal 0.0 0.0 1.0
  outer loop
    vertex 653.1831517623739 145.46886495612364 700.0
    vertex 649.4875125021955 180.63052376879386 700.0
    vertex 633.7545027259496 161.2018747323696 700.0
  endloop
endfacet
facet normal 0.0 0.0 1.0
  outer loop
    vertex 649.4875125021955 180.63052376879386 700.0
    vertex 653.1831517623739 145.46886495612364 700.0
    vertex 668.9161615386198 164.8975139925479 700.0
  endloop
endfacet
facet normal 0.777145961456971 -0.6293203910498376 0.0
  outer loop
    vertex 668.9161615386198 164.8975139925479 0.0
    vertex 653.1831517623739 145.46886495612364 700.0
    vertex 653.1831517623739 145.46886495612364 0.0
  endloop
endfacet
facet normal 0.777145961456971 -0.6293203910498376 0.0
  outer loop
    vertex 653.1831517623739 145.46886495612364 700.0
    vertex 668.9161615386198 164.8975139925479 0.0
    vertex 668.9161615386198 164.8975139925479 700.0
  endloop
endfacet
facet normal 0.777145961456971 -0.6293203910498376 0.0
  outer loop
    vertex 668.9161615386198 164.8975139925479 700.0
    vertex 668.9161615386198 164.8975139925479 0.0
    vertex 668.9161615386198 164.8975139925479 25.0
  endloop
endfacet
facet normal 0.777145961456971 -0.6293203910498376 0.0
  outer loop
    vertex 668.9161615386198 164.8975139925479 700.0
    vertex 668.9161615386198 164.8975139925479 25.0
    vertex 668.9161615386198 164.8975139925479 675.0
  endloop
endfacet
facet normal 0.6293203910498395 0.7771459614569692 -0.0
  outer loop
    vertex 665.0304317313349 168.0441159477971 675.0
    vertex 668.9161615386198 164.8975139925479 25.0
    vertex 665.0304317313349 168.0441159477971 25.0
  endloop
endfacet
facet normal 0.6293203910498395 0.7771459614569692 -0.0
  outer loop
    vertex 668.9161615386198 164.8975139925479 25.0
    vertex 665.0304317313349 168.0441159477971 675.0
    vertex 668.9161615386198 164.8975139925479 675.0
  endloop
endfacet
facet normal -0.0 -0.0 1.0
  outer loop
    vertex 668.9161615386198 164.8975139925479 700.0
    vertex 932.6816884746223 530.3462064244308 700.0
    vertex 649.4875125021955 180.63052376879386 700.0
  endloop
endfacet
facet normal -0.0 -0.0 1.0
  outer loop
    vertex 932.6816884746223 530.3462064244308 700.0
    vertex 668.9161615386198 164.8975139925479 700.0
    vertex 952.1103375110466 514.6131966481848 700.0
  endloop
endfacet
facet normal -0.0 -0.0 1.0
  outer loop
    vertex 668.9161615386198 164.8975139925479 25.0
    vertex 948.2246077037618 517.759798603434 25.0
    vertex 665.0304317313349 168.0441159477971 25.0
  endloop
endfacet
facet normal -0.0 -0.0 1.0
  outer loop
    vertex 948.2246077037618 517.759798603434 25.0
    vertex 668.9161615386198 164.8975139925479 25.0
    vertex 952.1103375110466 514.613196648185 25.0
  endloop
endfacet
facet normal 0.777145961456971 -0.6293203910498376 0.0
  outer loop
    vertex 952.1103375110466 514.6131966481848 675.0
    vertex 668.9161615386198 164.8975139925479 700.0
    vertex 668.9161615386198 164.8975139925479 675.0
  endloop
endfacet
facet normal 0.777145961456971 -0.6293203910498376 0.0
  outer loop
    vertex 668.9161615386198 164.8975139925479 700.0
    vertex 952.1103375110466 514.6131966481848 675.0
    vertex 952.1103375110466 514.6131966481848 700.0
  endloop
endfacet
facet normal 0.0 0.0 -1.0
  outer loop
    vertex 649.4875125021955 180.63052376879386 0.0
    vertex 653.1831517623739 145.46886495612364 0.0
    vertex 633.7545027259496 161.2018747323696 0.0
  endloop
endfacet
facet normal 0.0 0.0 -1.0
  outer loop
    vertex 653.1831517623739 145.46886495612364 0.0
    vertex 649.4875125021955 180.63052376879386 0.0
    vertex 668.9161615386198 164.8975139925479 0.0
  endloop
endfacet
facet normal 0.6293203910498368 0.7771459614569715 -0.0
  outer loop
    vertex 948.4146982508684 549.7748554608551 700.0
    vertex 967.8433472872925 534.0418456846093 0.0
    vertex 948.4146982508684 549.7748554608551 0.0
  endloop
endfacet
facet normal 0.6293203910498368 0.7771459614569715 -0.0
  outer loop
    vertex 967.8433472872925 534.0418456846093 0.0
    vertex 948.4146982508684 549.7748554608551 700.0
    vertex 967.8433472872925 534.0418456846093 700.0
  endloop
endfacet
facet normal -0.6293203910498391 -0.7771459614569696 3.721322964625659e-16
  outer loop
    vertex 952.1103375110466 514.6131966481848 700.0
    vertex 948.2246077037618 517.759798603434 675.0
    vertex 952.1103375110466 514.6131966481848 675.0
  endloop
endfacet
facet normal -0.6293203910498391 -0.7771459614569696 3.721322964625659e-16
  outer loop
    vertex 948.2246077037618 517.759798603434 675.0
    vertex 952.1103375110466 514.6131966481848 700.0
    vertex 944.3388778964769 520.9064005586831 675.0
  endloop
endfacet
facet normal -0.6293203910498391 -0.7771459614569696 3.721322964625659e-16
  outer loop
    vertex 944.3388778964769 520.9064005586831 675.0
    vertex 952.1103375110466 514.6131966481848 700.0
    vertex 932.6816884746223 530.3462064244308 675.0
  endloop
endfacet
facet normal -0.6293203910498391 -0.7771459614569696 3.721322964625659e-16
  outer loop
    vertex 932.6816884746223 530.3462064244308 675.0
    vertex 952.1103375110466 514.6131966481848 700.0
    vertex 932.6816884746223 530.3462064244308 700.0
  endloop
endfacet
facet normal 0.0 0.0 -1.0
  outer loop
    vertex 948.4146982508684 549.7748554608551 0.0
    vertex 952.1103375110466 514.613196648185 0.0
    vertex 932.6816884746223 530.3462064244308 0.0
  endloop
endfacet
facet normal 0.0 0.0 -1.0
  outer loop
    vertex 952.1103375110466 514.613196648185 0.0
    vertex 948.4146982508684 549.7748554608551 0.0
    vertex 967.8433472872925 534.0418456846093 0.0
  endloop
endfacet
facet normal 0.0 -1.0 0.0
  outer loop
    vertex 948.4146982508684 549.7748554608551 700.0
    vertex 923.4146982508682 549.7748554608551 0.0
    vertex 948.4146982508684 549.7748554608551 0.0
  endloop
endfacet
facet normal 0.0 -1.0 0.0
  outer loop
    vertex 923.4146982508682 549.7748554608551 0.0
    vertex 948.4146982508684 549.7748554608551 700.0
    vertex 923.4146982508682 549.7748554608551 25.0
  endloop
endfacet
facet normal 0.0 -1.0 0.0
  outer loop
    vertex 923.4146982508682 549.7748554608551 25.0
    vertex 948.4146982508684 549.7748554608551 700.0
    vertex 923.4146982508682 549.7748554608551 236.31091877356295
  endloop
endfacet
facet normal 0.0 -1.0 0.0
  outer loop
    vertex 923.4146982508682 549.7748554608551 236.31091877356295
    vertex 948.4146982508684 549.7748554608551 700.0
    vertex 923.4146982508682 549.7748554608551 248.81091877356295
  endloop
endfacet
facet normal 0.0 -1.0 0.0
  outer loop
    vertex 923.4146982508682 549.7748554608551 248.81091877356295
    vertex 948.4146982508684 549.7748554608551 700.0
    vertex 923.4146982508682 549.7748554608551 432.96300112932965
  endloop
endfacet
facet normal 0.0 -1.0 0.0
  outer loop
    vertex 923.4146982508682 549.7748554608551 432.96300112932965
    vertex 948.4146982508684 549.7748554608551 700.0
    vertex 923.4146982508682 549.7748554608551 445.4630011293296
  endloop
endfacet
facet normal 0.0 -1.0 0.0
  outer loop
    vertex 923.4146982508682 549.7748554608551 445.4630011293296
    vertex 948.4146982508684 549.7748554608551 700.0
    vertex 923.4146982508682 549.7748554608551 675.0
  endloop
endfacet
facet normal 0.0 -1.0 0.0
  outer loop
    vertex 923.4146982508682 549.7748554608551 675.0
    vertex 948.4146982508684 549.7748554608551 700.0
    vertex 923.4146982508682 549.7748554608551 700.0
  endloop
endfacet
facet normal -0.777145961456971 0.6293203910498375 0.0
  outer loop
    vertex 944.3388778964769 520.9064005586831 675.0
    vertex 661.1447019240501 171.1907179030463 25.0
    vertex 661.1447019240501 171.1907179030463 675.0
  endloop
endfacet
facet normal -0.777145961456971 0.6293203910498375 0.0
  outer loop
    vertex 661.1447019240501 171.1907179030463 25.0
    vertex 944.3388778964769 520.9064005586831 675.0
    vertex 944.3388778964769 520.9064005586831 25.0
  endloop
endfacet
facet normal -0.6293203910498404 -0.7771459614569685 0.0
  outer loop
    vertex 944.3388778964769 520.9064005586831 675.0
    vertex 932.6816884746223 530.3462064244308 25.0
    vertex 944.3388778964769 520.9064005586831 25.0
  endloop
endfacet
facet normal -0.6293203910498404 -0.7771459614569685 0.0
  outer loop
    vertex 932.6816884746223 530.3462064244308 25.0
    vertex 944.3388778964769 520.9064005586831 675.0
    vertex 932.6816884746223 530.3462064244308 675.0
  endloop
endfacet
facet normal 0.0 0.0 -1.0
  outer loop
    vertex 932.6816884746223 530.3462064244308 675.0
    vertex 661.1447019240501 171.1907179030463 675.0
    vertex 649.4875125021955 180.63052376879386 675.0
  endloop
endfacet
facet normal 0.0 0.0 -1.0
  outer loop
    vertex 661.1447019240501 171.1907179030463 675.0
    vertex 932.6816884746223 530.3462064244308 675.0
    vertex 944.3388778964769 520.9064005586831 675.0
  endloop
endfacet
facet normal 0.6293203910498386 0.7771459614569699 -0.0
  outer loop
    vertex 649.4875125021955 180.63052376879386 675.0
    vertex 661.1447019240501 171.1907179030463 25.0
    vertex 649.4875125021955 180.63052376879386 25.0
  endloop
endfacet
facet normal 0.6293203910498386 0.7771459614569699 -0.0
  outer loop
    vertex 661.1447019240501 171.1907179030463 25.0
    vertex 649.4875125021955 180.63052376879386 675.0
    vertex 661.1447019240501 171.1907179030463 675.0
  endloop
endfacet
facet normal -0.0 -0.0 1.0
  outer loop
    vertex 661.1447019240501 171.1907179030463 25.0
    vertex 932.6816884746223 530.3462064244308 25.0
    vertex 649.4875125021955 180.63052376879386 25.0
  endloop
endfacet
facet normal -0.0 -0.0 1.0
  outer loop
    vertex 932.6816884746223 530.3462064244308 25.0
    vertex 661.1447019240501 171.1907179030463 25.0
    vertex 944.3388778964769 520.9064005586831 25.0
  endloop
endfacet
facet normal 0.0 0.0 -1.0
  outer loop
    vertex 923.4146982508682 607.7748554608551 236.31091877356295
    vertex 473.41469825086835 549.7748554608551 236.31091877356295
    vertex 473.41469825086835 774.7748554608551 236.31091877356295
  endloop
endfacet
facet normal 0.0 0.0 -1.0
  outer loop
    vertex 473.41469825086835 549.7748554608551 236.31091877356295
    vertex 923.4146982508682 607.7748554608551 236.31091877356295
    vertex 923.4146982508682 549.7748554608551 236.31091877356295
  endloop
endfacet
facet normal -1.0 0.0 0.0
  outer loop
    vertex 473.41469825086835 774.7748554608551 248.81091877356295
    vertex 473.41469825086835 549.7748554608551 236.31091877356295
    vertex 473.41469825086835 549.7748554608551 248.81091877356295
  endloop
endfacet
facet normal -1.0 0.0 0.0
  outer loop
    vertex 473.41469825086835 549.7748554608551 236.31091877356295
    vertex 473.41469825086835 774.7748554608551 248.81091877356295
    vertex 473.41469825086835 549.7748554608551 25.0
  endloop
endfacet
facet normal -1.0 0.0 0.0
  outer loop
    vertex 473.41469825086835 549.7748554608551 25.0
    vertex 473.41469825086835 774.7748554608551 248.81091877356295
    vertex 473.41469825086835 774.7748554608551 25.0
  endloop
endfacet
facet normal -1.0 0.0 0.0
  outer loop
    vertex 473.41469825086835 774.7748554608551 25.0
    vertex 473.41469825086835 774.7748554608551 248.81091877356295
    vertex 473.41469825086835 774.7748554608551 236.31091877356295
  endloop
endfacet
facet normal -1.0 0.0 0.0
  outer loop
    vertex 923.4146982508682 607.7748554608551 445.4630011293296
    vertex 923.4146982508682 549.7748554608551 432.96300112932965
    vertex 923.4146982508682 549.7748554608551 445.4630011293296
  endloop
endfacet
facet normal -1.0 0.0 0.0
  outer loop
    vertex 923.4146982508682 549.7748554608551 432.96300112932965
    vertex 923.4146982508682 607.7748554608551 445.4630011293296
    vertex 923.4146982508682 549.7748554608551 248.81091877356295
  endloop
endfacet
facet normal -1.0 0.0 0.0
  outer loop
    vertex 923.4146982508682 549.7748554608551 248.81091877356295
    vertex 923.4146982508682 607.7748554608551 445.4630011293296
    vertex 923.4146982508682 607.7748554608551 248.81091877356295
  endloop
endfacet
facet normal -1.0 0.0 0.0
  outer loop
    vertex 923.4146982508682 607.7748554608551 248.81091877356295
    vertex 923.4146982508682 607.7748554608551 445.4630011293296
    vertex 923.4146982508682 607.7748554608551 432.96300112932965
  endloop
endfacet
facet normal 0.0 0.0 -1.0
  outer loop
    vertex 923.4146982508682 607.7748554608551 432.96300112932965
    vertex 473.41469825086835 549.7748554608551 432.96300112932965
    vertex 473.41469825086835 774.7748554608551 432.96300112932965
  endloop
endfacet
facet normal 0.0 0.0 -1.0
  outer loop
    vertex 473.41469825086835 549.7748554608551 432.96300112932965
    vertex 923.4146982508682 607.7748554608551 432.96300112932965
    vertex 923.4146982508682 549.7748554608551 432.96300112932965
  endloop
endfacet
facet normal -1.0 0.0 0.0
  outer loop
    vertex 923.4146982508682 607.7748554608551 675.0
    vertex 923.4146982508682 549.7748554608551 445.4630011293296
    vertex 923.4146982508682 549.7748554608551 675.0
  endloop
endfacet
facet normal -1.0 0.0 0.0
  outer loop
    vertex 923.4146982508682 549.7748554608551 445.4630011293296
    vertex 923.4146982508682 607.7748554608551 675.0
    vertex 923.4146982508682 607.7748554608551 445.4630011293296
  endloop
endfacet
facet normal 1.0 -0.0 -0.0
  outer loop
    vertex 473.41469825086835 774.7748554608551 248.81091877356295
    vertex 473.41469825086835 549.7748554608551 432.96300112932965
    vertex 473.41469825086835 549.7748554608551 248.81091877356295
  endloop
endfacet
facet normal 1.0 -0.0 -0.0
  outer loop
    vertex 473.41469825086835 549.7748554608551 432.96300112932965
    vertex 473.41469825086835 774.7748554608551 248.81091877356295
    vertex 473.41469825086835 549.7748554608551 445.4630011293296
  endloop
endfacet
facet normal 1.0 -0.0 -0.0
  outer loop
    vertex 473.41469825086835 549.7748554608551 445.4630011293296
    vertex 473.41469825086835 774.7748554608551 248.81091877356295
    vertex 473.41469825086835 774.7748554608551 445.4630011293296
  endloop
endfacet
facet normal 1.0 -0.0 -0.0
  outer loop
    vertex 473.41469825086835 774.7748554608551 445.4630011293296
    vertex 473.41469825086835 774.7748554608551 248.81091877356295
    vertex 473.41469825086835 774.7748554608551 432.96300112932965
  endloop
endfacet
facet normal -0.0 -0.0 1.0
  outer loop
    vertex 923.4146982508682 549.7748554608551 445.4630011293296
    vertex 473.41469825086835 774.7748554608551 445.4630011293296
    vertex 473.41469825086835 549.7748554608551 445.4630011293296
  endloop
endfacet
facet normal -0.0 -0.0 1.0
  outer loop
    vertex 473.41469825086835 774.7748554608551 445.4630011293296
    vertex 923.4146982508682 549.7748554608551 445.4630011293296
    vertex 923.4146982508682 607.7748554608551 445.4630011293296
  endloop
endfacet
facet normal 0.34792497226644165 0.9375223803586747 0.0
  outer loop
    vertex 473.41469825086835 774.7748554608551 445.4630011293296
    vertex 923.4146982508682 607.7748554608551 432.96300112932965
    vertex 473.41469825086835 774.7748554608551 432.96300112932965
  endloop
endfacet
facet normal 0.34792497226644165 0.9375223803586747 0.0
  outer loop
    vertex 923.4146982508682 607.7748554608551 432.96300112932965
    vertex 473.41469825086835 774.7748554608551 445.4630011293296
    vertex 923.4146982508682 607.7748554608551 445.4630011293296
  endloop
endfacet
facet normal -0.0 -1.0 -0.0
  outer loop
    vertex 923.4146982508682 549.7748554608551 445.4630011293296
    vertex 473.41469825086835 549.7748554608551 432.96300112932965
    vertex 923.4146982508682 549.7748554608551 432.96300112932965
  endloop
endfacet
facet normal -0.0 -1.0 -0.0
  outer loop
    vertex 473.41469825086835 549.7748554608551 432.96300112932965
    vertex 923.4146982508682 549.7748554608551 445.4630011293296
    vertex 473.41469825086835 549.7748554608551 445.4630011293296
  endloop
endfacet
facet normal -0.0 -0.0 1.0
  outer loop
    vertex 923.4146982508682 549.7748554608551 248.81091877356295
    vertex 473.41469825086835 774.7748554608551 248.81091877356295
    vertex 473.41469825086835 549.7748554608551 248.81091877356295
  endloop
endfacet
facet normal -0.0 -0.0 1.0
  outer loop
    vertex 473.41469825086835 774.7748554608551 248.81091877356295
    vertex 923.4146982508682 549.7748554608551 248.81091877356295
    vertex 923.4146982508682 607.7748554608551 248.81091877356295
  endloop
endfacet
facet normal 0.34792497226644165 0.9375223803586747 0.0
  outer loop
    vertex 473.41469825086835 774.7748554608551 248.81091877356295
    vertex 923.4146982508682 607.7748554608551 236.31091877356295
    vertex 473.41469825086835 774.7748554608551 236.31091877356295
  endloop
endfacet
facet normal 0.34792497226644165 0.9375223803586747 0.0
  outer loop
    vertex 923.4146982508682 607.7748554608551 236.31091877356295
    vertex 473.41469825086835 774.7748554608551 248.81091877356295
    vertex 923.4146982508682 607.7748554608551 248.81091877356295
  endloop
endfacet
facet normal -0.0 -1.0 -0.0
  outer loop
    vertex 923.4146982508682 549.7748554608551 248.81091877356295
    vertex 473.41469825086835 549.7748554608551 236.31091877356295
    vertex 923.4146982508682 549.7748554608551 236.31091877356295
  endloop
endfacet
facet normal -0.0 -1.0 -0.0
  outer loop
    vertex 473.41469825086835 549.7748554608551 236.31091877356295
    vertex 923.4146982508682 549.7748554608551 248.81091877356295
    vertex 473.41469825086835 549.7748554608551 248.81091877356295
  endloop
endfacet
facet normal 0.6293203910498278 0.7771459614569785 -0.0
  outer loop
    vertex 661.1447019240501 171.1907179030463 675.0
    vertex 665.0304317313349 168.0441159477971 25.0
    vertex 661.1447019240501 171.1907179030463 25.0
  endloop
endfacet
facet normal 0.6293203910498278 0.7771459614569785 -0.0
  outer loop
    vertex 665.0304317313349 168.0441159477971 25.0
    vertex 661.1447019240501 171.1907179030463 675.0
    vertex 665.0304317313349 168.0441159477971 675.0
  endloop
endfacet
facet normal 0.0 0.0 -1.0
  outer loop
    vertex 944.3388778964769 520.9064005586831 675.0
    vertex 665.0304317313349 168.0441159477971 675.0
    vertex 661.1447019240501 171.1907179030463 675.0
  endloop
endfacet
facet normal 0.0 0.0 -1.0
  outer loop
    vertex 665.0304317313349 168.0441159477971 675.0
    vertex 944.3388778964769 520.9064005586831 675.0
    vertex 948.2246077037618 517.759798603434 675.0
  endloop
endfacet
facet normal -0.6293203910498368 -0.7771459614569713 0.0
  outer loop
    vertex 948.2246077037618 517.759798603434 675.0
    vertex 944.3388778964769 520.9064005586831 25.0
    vertex 948.2246077037618 517.759798603434 25.0
  endloop
endfacet
facet normal -0.6293203910498368 -0.7771459614569713 0.0
  outer loop
    vertex 944.3388778964769 520.9064005586831 25.0
    vertex 948.2246077037618 517.759798603434 675.0
    vertex 944.3388778964769 520.9064005586831 675.0
  endloop
endfacet
facet normal -0.0 -0.0 1.0
  outer loop
    vertex 665.0304317313349 168.0441159477971 25.0
    vertex 944.3388778964769 520.9064005586831 25.0
    vertex 661.1447019240501 171.1907179030463 25.0
  endloop
endfacet
facet normal -0.0 -0.0 1.0
  outer loop
    vertex 944.3388778964769 520.9064005586831 25.0
    vertex 665.0304317313349 168.0441159477971 25.0
    vertex 948.2246077037618 517.759798603434 25.0
  endloop
endfacet
facet normal 0.777145961456971 -0.6293203910498374 -0.0
  outer loop
    vertex 948.2246077037618 517.759798603434 25.0
    vertex 665.0304317313349 168.0441159477971 675.0
    vertex 665.0304317313349 168.0441159477971 25.0
  endloop
endfacet
facet normal 0.777145961456971 -0.6293203910498374 -0.0
  outer loop
    vertex 665.0304317313349 168.0441159477971 675.0
    vertex 948.2246077037618 517.759798603434 25.0
    vertex 948.2246077037618 517.759798603434 675.0
  endloop
endfacet
endsolid meuble_SDB_ArnaudSarah
