solid OpenSCAD_Model
  facet normal -0.956305 0 -0.292372
    outer loop
      vertex 50.7874 1 -25.8775
      vertex 50.2026 40 -23.9648
      vertex 50.7874 40 -25.8775
    endloop
  endfacet
  facet normal -0.956305 -0 -0.292372
    outer loop
      vertex 50.2026 40 -23.9648
      vertex 50.7874 1 -25.8775
      vertex 50.2026 1 -23.9648
    endloop
  endfacet
  facet normal -0.292372 0 0.956305
    outer loop
      vertex 50.2026 40 -23.9648
      vertex 51.1589 1 -23.6725
      vertex 51.1589 40 -23.6725
    endloop
  endfacet
  facet normal -0.292372 0 0.956305
    outer loop
      vertex 51.1589 1 -23.6725
      vertex 50.2026 40 -23.9648
      vertex 50.2026 1 -23.9648
    endloop
  endfacet
  facet normal 0 -1 0
    outer loop
      vertex -15.0231 0 28.2543
      vertex -13.7267 0 30.0762
      vertex -15.4926 0 29.1373
    endloop
  endfacet
  facet normal 0 -1 0
    outer loop
      vertex -15.0231 0 28.2543
      vertex 1.46985 0 1.49573
      vertex -13.7267 0 30.0762
    endloop
  endfacet
  facet normal 0 -1 0
    outer loop
      vertex 0 0 0
      vertex 1.46985 0 1.49573
      vertex -15.0231 0 28.2543
    endloop
  endfacet
  facet normal 0 -1 0
    outer loop
      vertex 0 0 0
      vertex 50.9754 0 -23.7286
      vertex 1.46985 0 1.49573
    endloop
  endfacet
  facet normal -0 -1 0
    outer loop
      vertex 50.9754 0 -23.7286
      vertex 0 0 0
      vertex 50.7874 0 -25.8775
    endloop
  endfacet
  facet normal 0 -1 0
    outer loop
      vertex 50.9754 0 -23.7286
      vertex 95.7337 0 -12.136
      vertex 95.1489 0 -10.2234
    endloop
  endfacet
  facet normal 0 -1 0
    outer loop
      vertex 95.7337 0 -12.136
      vertex 50.9754 0 -23.7286
      vertex 50.7874 0 -25.8775
    endloop
  endfacet
  facet normal 0 -1 0
    outer loop
      vertex -15.0231 40 28.2543
      vertex 0 40 0
      vertex 0.907981 40 1.78201
    endloop
  endfacet
  facet normal 0 -1 0
    outer loop
      vertex 0.907981 40 1.78201
      vertex -13.2572 40 29.1933
      vertex -15.0231 40 28.2543
    endloop
  endfacet
  facet normal 0 -1 0
    outer loop
      vertex -13.2572 40 29.1933
      vertex 1.46985 40 1.49573
      vertex -13.7267 40 30.0762
    endloop
  endfacet
  facet normal 0 -1 0
    outer loop
      vertex 1.46985 40 1.49573
      vertex -13.2572 40 29.1933
      vertex 0.907981 40 1.78201
    endloop
  endfacet
  facet normal 0 -1 0
    outer loop
      vertex 50.2026 40 -23.9648
      vertex 1.79899 40 1.32802
      vertex 0.891007 40 -0.45399
    endloop
  endfacet
  facet normal 0 -1 0
    outer loop
      vertex 1.79899 40 1.32802
      vertex 50.2026 40 -23.9648
      vertex 50.9754 40 -23.7286
    endloop
  endfacet
  facet normal -0 -1 -0
    outer loop
      vertex 50.2026 40 -23.9648
      vertex 0.891007 40 -0.45399
      vertex 50.7874 40 -25.8775
    endloop
  endfacet
  facet normal 0 -1 -0
    outer loop
      vertex 94.1926 40 -10.5158
      vertex 51.1589 40 -23.6725
      vertex 94.7774 40 -12.4284
    endloop
  endfacet
  facet normal 0 -1 0
    outer loop
      vertex 51.1589 40 -23.6725
      vertex 94.1926 40 -10.5158
      vertex 95.1489 40 -10.2234
    endloop
  endfacet
  facet normal 0 -1 0
    outer loop
      vertex 51.7437 40 -25.5851
      vertex 94.7774 40 -12.4284
      vertex 51.1589 40 -23.6725
    endloop
  endfacet
  facet normal 0 -1 0
    outer loop
      vertex 51.7437 40 -25.5851
      vertex 95.7337 40 -12.136
      vertex 94.7774 40 -12.4284
    endloop
  endfacet
  facet normal 0 -1 0
    outer loop
      vertex 95.7337 40 -12.136
      vertex 51.7437 40 -25.5851
      vertex 50.7874 40 -25.8775
    endloop
  endfacet
  facet normal 0 1 -0
    outer loop
      vertex 50.9754 40 -23.7286
      vertex 50.2026 40 -23.9648
      vertex 51.1589 40 -23.6725
    endloop
  endfacet
  facet normal -0 1 0
    outer loop
      vertex 51.1589 40 -23.6725
      vertex 95.1489 40 -10.2234
      vertex 50.9754 40 -23.7286
    endloop
  endfacet
  facet normal 0.292372 0 -0.956305
    outer loop
      vertex 50.7874 1 -25.8775
      vertex 51.7437 40 -25.5851
      vertex 51.7437 1 -25.5851
    endloop
  endfacet
  facet normal 0.292372 0 -0.956305
    outer loop
      vertex 51.7437 40 -25.5851
      vertex 50.7874 1 -25.8775
      vertex 50.7874 40 -25.8775
    endloop
  endfacet
  facet normal 0.956305 -0 0.292372
    outer loop
      vertex 51.1589 1 -23.6725
      vertex 51.7437 40 -25.5851
      vertex 51.1589 40 -23.6725
    endloop
  endfacet
  facet normal 0.956305 0 0.292372
    outer loop
      vertex 51.7437 40 -25.5851
      vertex 51.1589 1 -23.6725
      vertex 51.7437 1 -25.5851
    endloop
  endfacet
  facet normal -0.469472 0 0.882948
    outer loop
      vertex -15.4926 40 29.1373
      vertex -13.7267 40 30.0762
      vertex -13.7267 41 30.0762
    endloop
  endfacet
  facet normal -0.469472 0 0.882948
    outer loop
      vertex -13.7267 40 30.0762
      vertex -15.4926 40 29.1373
      vertex -13.7267 1 30.0762
    endloop
  endfacet
  facet normal -0.469472 0 0.882948
    outer loop
      vertex -15.4926 40 29.1373
      vertex -13.7267 41 30.0762
      vertex -15.4926 41 29.1373
    endloop
  endfacet
  facet normal -0.469472 0 0.882948
    outer loop
      vertex -15.4926 0 29.1373
      vertex -13.7267 1 30.0762
      vertex -15.4926 40 29.1373
    endloop
  endfacet
  facet normal -0.469472 0 0.882948
    outer loop
      vertex -13.7267 1 30.0762
      vertex -15.4926 0 29.1373
      vertex -13.7267 0 30.0762
    endloop
  endfacet
  facet normal 0.882948 -0 0.469471
    outer loop
      vertex -13.7267 1 30.0762
      vertex -13.2572 40 29.1933
      vertex -13.7267 40 30.0762
    endloop
  endfacet
  facet normal 0.882948 0 0.469471
    outer loop
      vertex -13.2572 40 29.1933
      vertex -13.7267 1 30.0762
      vertex -13.2572 1 29.1933
    endloop
  endfacet
  facet normal 0.469472 0 -0.882947
    outer loop
      vertex -15.0231 1 28.2543
      vertex -13.2572 40 29.1933
      vertex -13.2572 1 29.1933
    endloop
  endfacet
  facet normal 0.469472 0 -0.882947
    outer loop
      vertex -13.2572 40 29.1933
      vertex -15.0231 1 28.2543
      vertex -15.0231 40 28.2543
    endloop
  endfacet
  facet normal 0 0 0
    outer loop
      vertex -15.0231 1 28.2543
      vertex -15.0231 0 28.2543
      vertex -15.0231 40 28.2543
    endloop
  endfacet
  facet normal -0.882948 0 -0.469472
    outer loop
      vertex -15.0231 0 28.2543
      vertex -15.4926 40 29.1373
      vertex -15.0231 40 28.2543
    endloop
  endfacet
  facet normal -0.882948 -0 -0.469472
    outer loop
      vertex -15.4926 40 29.1373
      vertex -15.0231 0 28.2543
      vertex -15.4926 0 29.1373
    endloop
  endfacet
  facet normal -0.891007 0 0.45399
    outer loop
      vertex 0 1 0
      vertex 0.907981 40 1.78201
      vertex 0 40 0
    endloop
  endfacet
  facet normal -0.891007 0 0.45399
    outer loop
      vertex 0.907981 40 1.78201
      vertex 0 1 0
      vertex 0.907981 1 1.78201
    endloop
  endfacet
  facet normal 0.453991 0 0.891007
    outer loop
      vertex 50.9754 41 -23.7286
      vertex 1.79899 40 1.32802
      vertex 50.9754 40 -23.7286
    endloop
  endfacet
  facet normal 0.45399 -0 0.891007
    outer loop
      vertex 1.46985 40 1.49573
      vertex 1.79899 40 1.32802
      vertex 1.46985 41 1.49573
    endloop
  endfacet
  facet normal 0.453991 1.54493e-08 0.891007
    outer loop
      vertex 1.46985 41 1.49573
      vertex 1.79899 40 1.32802
      vertex 50.9754 41 -23.7286
    endloop
  endfacet
  facet normal 0.453991 0 0.891007
    outer loop
      vertex 1.79899 1 1.32802
      vertex 50.9754 0 -23.7286
      vertex 50.9754 1 -23.7286
    endloop
  endfacet
  facet normal 0.45399 0 0.891007
    outer loop
      vertex 1.79899 40 1.32802
      vertex 1.46985 40 1.49573
      vertex 1.79899 1 1.32802
    endloop
  endfacet
  facet normal 0.45399 -0 0.891007
    outer loop
      vertex 1.46985 1 1.49573
      vertex 1.79899 1 1.32802
      vertex 1.46985 40 1.49573
    endloop
  endfacet
  facet normal 0.45399 -0 0.891007
    outer loop
      vertex 1.46985 0 1.49573
      vertex 1.79899 1 1.32802
      vertex 1.46985 1 1.49573
    endloop
  endfacet
  facet normal 0.453991 -1.54493e-08 0.891007
    outer loop
      vertex 1.79899 1 1.32802
      vertex 1.46985 0 1.49573
      vertex 50.9754 0 -23.7286
    endloop
  endfacet
  facet normal 0.45399 0 0.891007
    outer loop
      vertex 0.907981 40 1.78201
      vertex 1.46985 1 1.49573
      vertex 1.46985 40 1.49573
    endloop
  endfacet
  facet normal 0.45399 0 0.891007
    outer loop
      vertex 1.46985 1 1.49573
      vertex 0.907981 40 1.78201
      vertex 0.907981 1 1.78201
    endloop
  endfacet
  facet normal 0.891007 0 -0.45399
    outer loop
      vertex 1.79899 1 1.32802
      vertex 0.891007 40 -0.45399
      vertex 1.79899 40 1.32802
    endloop
  endfacet
  facet normal 0.891007 0 -0.45399
    outer loop
      vertex 0.891007 40 -0.45399
      vertex 1.79899 1 1.32802
      vertex 0.891007 1 -0.45399
    endloop
  endfacet
  facet normal -0.45399 0 -0.891007
    outer loop
      vertex 50.7874 0 -25.8775
      vertex 0.891007 1 -0.45399
      vertex 50.7874 1 -25.8775
    endloop
  endfacet
  facet normal -0.45399 -0 -0.891007
    outer loop
      vertex 0 1 0
      vertex 0.891007 1 -0.45399
      vertex 0 0 0
    endloop
  endfacet
  facet normal -0.45399 7.39165e-09 -0.891007
    outer loop
      vertex 0 0 0
      vertex 0.891007 1 -0.45399
      vertex 50.7874 0 -25.8775
    endloop
  endfacet
  facet normal -0.45399 0 -0.891007
    outer loop
      vertex 0.891007 40 -0.45399
      vertex 50.7874 41 -25.8775
      vertex 50.7874 40 -25.8775
    endloop
  endfacet
  facet normal -0.45399 0 -0.891007
    outer loop
      vertex 0.891007 1 -0.45399
      vertex 0 1 0
      vertex 0.891007 40 -0.45399
    endloop
  endfacet
  facet normal -0.45399 -0 -0.891007
    outer loop
      vertex 0 40 0
      vertex 0.891007 40 -0.45399
      vertex 0 1 0
    endloop
  endfacet
  facet normal -0.45399 -0 -0.891007
    outer loop
      vertex 0 41 0
      vertex 0.891007 40 -0.45399
      vertex 0 40 0
    endloop
  endfacet
  facet normal -0.45399 -7.39165e-09 -0.891007
    outer loop
      vertex 0.891007 40 -0.45399
      vertex 0 41 0
      vertex 50.7874 41 -25.8775
    endloop
  endfacet
  facet normal 0.956304 -0 0.292374
    outer loop
      vertex 95.1489 40 -10.2234
      vertex 95.7337 41 -12.136
      vertex 95.1489 41 -10.2234
    endloop
  endfacet
  facet normal 0.956304 0 0.292374
    outer loop
      vertex 95.1489 40 -10.2234
      vertex 95.7337 40 -12.136
      vertex 95.7337 41 -12.136
    endloop
  endfacet
  facet normal 0.956304 -0 0.292374
    outer loop
      vertex 95.1489 1 -10.2234
      vertex 95.7337 40 -12.136
      vertex 95.1489 40 -10.2234
    endloop
  endfacet
  facet normal 0.956304 0 0.292374
    outer loop
      vertex 95.1489 1 -10.2234
      vertex 95.7337 1 -12.136
      vertex 95.7337 40 -12.136
    endloop
  endfacet
  facet normal 0.956304 -0 0.292374
    outer loop
      vertex 95.1489 0 -10.2234
      vertex 95.7337 1 -12.136
      vertex 95.1489 1 -10.2234
    endloop
  endfacet
  facet normal 0.956304 0 0.292374
    outer loop
      vertex 95.7337 1 -12.136
      vertex 95.1489 0 -10.2234
      vertex 95.7337 0 -12.136
    endloop
  endfacet
  facet normal -0.292373 0 0.956304
    outer loop
      vertex 94.1926 40 -10.5158
      vertex 95.1489 1 -10.2234
      vertex 95.1489 40 -10.2234
    endloop
  endfacet
  facet normal -0.292373 0 0.956304
    outer loop
      vertex 95.1489 1 -10.2234
      vertex 94.1926 40 -10.5158
      vertex 94.1926 1 -10.5158
    endloop
  endfacet
  facet normal -0.956305 0 -0.29237
    outer loop
      vertex 94.7774 1 -12.4284
      vertex 94.1926 40 -10.5158
      vertex 94.7774 40 -12.4284
    endloop
  endfacet
  facet normal -0.956305 -0 -0.29237
    outer loop
      vertex 94.1926 40 -10.5158
      vertex 94.7774 1 -12.4284
      vertex 94.1926 1 -10.5158
    endloop
  endfacet
  facet normal 0.292371 0 -0.956305
    outer loop
      vertex 94.7774 1 -12.4284
      vertex 95.7337 40 -12.136
      vertex 95.7337 1 -12.136
    endloop
  endfacet
  facet normal 0.292371 0 -0.956305
    outer loop
      vertex 95.7337 40 -12.136
      vertex 94.7774 1 -12.4284
      vertex 94.7774 40 -12.4284
    endloop
  endfacet
  facet normal -0.292372 0 0.956305
    outer loop
      vertex 50.9754 1 -23.7286
      vertex 95.1489 0 -10.2234
      vertex 95.1489 1 -10.2234
    endloop
  endfacet
  facet normal -0.292372 0 0.956305
    outer loop
      vertex 95.1489 0 -10.2234
      vertex 50.9754 1 -23.7286
      vertex 50.9754 0 -23.7286
    endloop
  endfacet
  facet normal 0.292372 0 -0.956305
    outer loop
      vertex 50.7874 0 -25.8775
      vertex 95.7337 1 -12.136
      vertex 95.7337 0 -12.136
    endloop
  endfacet
  facet normal 0.292372 0 -0.956305
    outer loop
      vertex 95.7337 1 -12.136
      vertex 50.7874 0 -25.8775
      vertex 50.7874 1 -25.8775
    endloop
  endfacet
  facet normal 0 1 0
    outer loop
      vertex -13.2572 1 29.1933
      vertex 0.907981 1 1.78201
      vertex -15.0231 1 28.2543
    endloop
  endfacet
  facet normal 0 1 0
    outer loop
      vertex -13.2572 1 29.1933
      vertex 1.46985 1 1.49573
      vertex 0.907981 1 1.78201
    endloop
  endfacet
  facet normal 0 1 0
    outer loop
      vertex 1.46985 1 1.49573
      vertex -13.2572 1 29.1933
      vertex -13.7267 1 30.0762
    endloop
  endfacet
  facet normal 0 1 0
    outer loop
      vertex -15.0231 1 28.2543
      vertex 0.907981 1 1.78201
      vertex 0 1 0
    endloop
  endfacet
  facet normal 0 1 -0
    outer loop
      vertex 50.2026 1 -23.9648
      vertex 1.79899 1 1.32802
      vertex 50.9754 1 -23.7286
    endloop
  endfacet
  facet normal 0 1 0
    outer loop
      vertex 1.79899 1 1.32802
      vertex 50.2026 1 -23.9648
      vertex 0.891007 1 -0.45399
    endloop
  endfacet
  facet normal 0 1 0
    outer loop
      vertex 0.891007 1 -0.45399
      vertex 50.2026 1 -23.9648
      vertex 50.7874 1 -25.8775
    endloop
  endfacet
  facet normal 0 1 0
    outer loop
      vertex 94.7774 1 -12.4284
      vertex 51.7437 1 -25.5851
      vertex 51.1589 1 -23.6725
    endloop
  endfacet
  facet normal 0 1 0
    outer loop
      vertex 95.7337 1 -12.136
      vertex 51.7437 1 -25.5851
      vertex 94.7774 1 -12.4284
    endloop
  endfacet
  facet normal -0 1 0
    outer loop
      vertex 51.7437 1 -25.5851
      vertex 95.7337 1 -12.136
      vertex 50.7874 1 -25.8775
    endloop
  endfacet
  facet normal 0 1 -0
    outer loop
      vertex 94.1926 1 -10.5158
      vertex 51.1589 1 -23.6725
      vertex 95.1489 1 -10.2234
    endloop
  endfacet
  facet normal 0 1 0
    outer loop
      vertex 51.1589 1 -23.6725
      vertex 94.1926 1 -10.5158
      vertex 94.7774 1 -12.4284
    endloop
  endfacet
  facet normal 0 1 0
    outer loop
      vertex 50.2026 1 -23.9648
      vertex 50.9754 1 -23.7286
      vertex 95.1489 1 -10.2234
    endloop
  endfacet
  facet normal 0 -1 0
    outer loop
      vertex 95.1489 1 -10.2234
      vertex 51.1589 1 -23.6725
      vertex 50.2026 1 -23.9648
    endloop
  endfacet
  facet normal 0.882948 -0 0.469472
    outer loop
      vertex -13.7267 0 30.0762
      vertex 1.46985 1 1.49573
      vertex -13.7267 1 30.0762
    endloop
  endfacet
  facet normal 0.882948 0 0.469472
    outer loop
      vertex 1.46985 1 1.49573
      vertex -13.7267 0 30.0762
      vertex 1.46985 0 1.49573
    endloop
  endfacet
  facet normal -0.882948 0 -0.469472
    outer loop
      vertex 0 0 0
      vertex -15.0231 1 28.2543
      vertex 0 1 0
    endloop
  endfacet
  facet normal -0.882948 -0 -0.469472
    outer loop
      vertex -15.0231 1 28.2543
      vertex 0 0 0
      vertex -15.0231 0 28.2543
    endloop
  endfacet
  facet normal -0.891007 0 0.45399
    outer loop
      vertex -1.36197 0 -2.67302
      vertex -0.45399 1 -0.891007
      vertex -1.36197 1 -2.67302
    endloop
  endfacet
  facet normal -0.891007 0 0.45399
    outer loop
      vertex -0.45399 1 -0.891007
      vertex -1.36197 0 -2.67302
      vertex -0.45399 0 -0.891007
    endloop
  endfacet
  facet normal 0.45399 0 0.891007
    outer loop
      vertex -0.45399 1 -0.891007
      vertex 50.3334 0 -26.7685
      vertex 50.3334 1 -26.7685
    endloop
  endfacet
  facet normal 0.45399 0 0.891007
    outer loop
      vertex 50.3334 0 -26.7685
      vertex -0.45399 1 -0.891007
      vertex -0.45399 0 -0.891007
    endloop
  endfacet
  facet normal -0.45399 0 -0.891007
    outer loop
      vertex -1.36197 0 -2.67302
      vertex 48.568 1 -28.1136
      vertex 48.568 0 -28.1136
    endloop
  endfacet
  facet normal -0.45399 0 -0.891007
    outer loop
      vertex 48.568 1 -28.1136
      vertex -1.36197 0 -2.67302
      vertex -1.36197 1 -2.67302
    endloop
  endfacet
  facet normal 0 -1 0
    outer loop
      vertex 48.568 0 -28.1136
      vertex -0.45399 0 -0.891007
      vertex -1.36197 0 -2.67302
    endloop
  endfacet
  facet normal 0 -1 0
    outer loop
      vertex -0.45399 0 -0.891007
      vertex 48.568 0 -28.1136
      vertex 50.3334 0 -26.7685
    endloop
  endfacet
  facet normal 0 -1 -0
    outer loop
      vertex 50.3334 0 -26.7685
      vertex 48.568 0 -28.1136
      vertex 50.6862 0 -27.0343
    endloop
  endfacet
  facet normal 0 -1 -0
    outer loop
      vertex 96.0261 0 -13.0923
      vertex 94.0371 0 -15.7918
      vertex 96.6108 0 -15.0049
    endloop
  endfacet
  facet normal 0 -1 0
    outer loop
      vertex 51.0797 0 -26.8338
      vertex 94.0371 0 -15.7918
      vertex 96.0261 0 -13.0923
    endloop
  endfacet
  facet normal 0 -1 0
    outer loop
      vertex 52.5848 0 -28.465
      vertex 51.0797 0 -26.8338
      vertex 50.6862 0 -27.0343
    endloop
  endfacet
  facet normal 0 -1 0
    outer loop
      vertex 50.4806 0 -29.3837
      vertex 50.6862 0 -27.0343
      vertex 48.568 0 -28.1136
    endloop
  endfacet
  facet normal 0 -1 0
    outer loop
      vertex 51.0797 0 -26.8338
      vertex 52.5848 0 -28.465
      vertex 94.0371 0 -15.7918
    endloop
  endfacet
  facet normal 0 -1 -0
    outer loop
      vertex 50.6862 0 -27.0343
      vertex 50.4806 0 -29.3837
      vertex 52.5848 0 -28.465
    endloop
  endfacet
  facet normal 0 -1 0
    outer loop
      vertex 10.1104 0 -49.9533
      vertex 48.568 0 -28.1136
      vertex 9.20244 0 -48.1713
    endloop
  endfacet
  facet normal 0 -1 -0
    outer loop
      vertex 48.568 0 -28.1136
      vertex 10.1104 0 -49.9533
      vertex 50.4806 0 -29.3837
    endloop
  endfacet
  facet normal 0 -1 0
    outer loop
      vertex 78.8857 0 -48.2842
      vertex 96.6108 0 -15.0049
      vertex 94.0371 0 -15.7918
    endloop
  endfacet
  facet normal 0 -1 0
    outer loop
      vertex 76.7477 0 -57.6014
      vertex 78.8857 0 -48.2842
      vertex 78.0216 0 -50.1373
    endloop
  endfacet
  facet normal 0 -1 0
    outer loop
      vertex 76.7477 0 -57.6014
      vertex 78.0216 0 -50.1373
      vertex 74.9351 0 -56.7561
    endloop
  endfacet
  facet normal 0 -1 -0
    outer loop
      vertex 78.8857 0 -48.2842
      vertex 76.7477 0 -57.6014
      vertex 96.6108 0 -15.0049
    endloop
  endfacet
  facet normal 0 -1 0
    outer loop
      vertex 78.0216 0 -50.1373
      vertex 52.5848 0 -28.465
      vertex 50.4806 0 -29.3837
    endloop
  endfacet
  facet normal 0 -1 0
    outer loop
      vertex 52.5848 0 -28.465
      vertex 78.0216 0 -50.1373
      vertex 78.8857 0 -48.2842
    endloop
  endfacet
  facet normal 0 1 -0
    outer loop
      vertex 78.0216 1 -50.1373
      vertex 52.5848 1 -28.465
      vertex 78.8857 1 -48.2842
    endloop
  endfacet
  facet normal 0 1 0
    outer loop
      vertex 52.5848 1 -28.465
      vertex 78.0216 1 -50.1373
      vertex 50.4806 1 -29.3837
    endloop
  endfacet
  facet normal 0 1 0
    outer loop
      vertex 96.6108 1 -15.0049
      vertex 78.8857 1 -48.2842
      vertex 94.0371 1 -15.7918
    endloop
  endfacet
  facet normal 0 1 0
    outer loop
      vertex 76.7477 1 -57.6014
      vertex 78.8857 1 -48.2842
      vertex 96.6108 1 -15.0049
    endloop
  endfacet
  facet normal 0 1 0
    outer loop
      vertex 78.8857 1 -48.2842
      vertex 76.7477 1 -57.6014
      vertex 78.0216 1 -50.1373
    endloop
  endfacet
  facet normal 0 1 0
    outer loop
      vertex 78.0216 1 -50.1373
      vertex 76.7477 1 -57.6014
      vertex 74.9351 1 -56.7561
    endloop
  endfacet
  facet normal 0 1 0
    outer loop
      vertex 94.0371 1 -15.7918
      vertex 96.0261 1 -13.0923
      vertex 96.6108 1 -15.0049
    endloop
  endfacet
  facet normal 0 1 -0
    outer loop
      vertex 94.0371 1 -15.7918
      vertex 51.0797 1 -26.8338
      vertex 96.0261 1 -13.0923
    endloop
  endfacet
  facet normal 0 1 -0
    outer loop
      vertex 52.5848 1 -28.465
      vertex 51.0797 1 -26.8338
      vertex 94.0371 1 -15.7918
    endloop
  endfacet
  facet normal 0 1 0
    outer loop
      vertex 51.0797 1 -26.8338
      vertex 52.5848 1 -28.465
      vertex 50.6862 1 -27.0343
    endloop
  endfacet
  facet normal 0 1 0
    outer loop
      vertex 50.4806 1 -29.3837
      vertex 50.6862 1 -27.0343
      vertex 52.5848 1 -28.465
    endloop
  endfacet
  facet normal 0 1 0
    outer loop
      vertex 50.6862 1 -27.0343
      vertex 50.4806 1 -29.3837
      vertex 48.568 1 -28.1136
    endloop
  endfacet
  facet normal 0 1 0
    outer loop
      vertex 10.1104 1 -49.9533
      vertex 48.568 1 -28.1136
      vertex 50.4806 1 -29.3837
    endloop
  endfacet
  facet normal 0 1 0
    outer loop
      vertex 48.568 1 -28.1136
      vertex 10.1104 1 -49.9533
      vertex 9.20244 1 -48.1713
    endloop
  endfacet
  facet normal 0 1 -0
    outer loop
      vertex 48.568 1 -28.1136
      vertex -0.45399 1 -0.891007
      vertex 50.3334 1 -26.7685
    endloop
  endfacet
  facet normal 0 1 0
    outer loop
      vertex 48.568 1 -28.1136
      vertex 50.3334 1 -26.7685
      vertex 50.6862 1 -27.0343
    endloop
  endfacet
  facet normal 0 1 0
    outer loop
      vertex -0.45399 1 -0.891007
      vertex 48.568 1 -28.1136
      vertex -1.36197 1 -2.67302
    endloop
  endfacet
  facet normal 0.601815 0 0.798635
    outer loop
      vertex 50.3334 1 -26.7685
      vertex 50.6862 0 -27.0343
      vertex 50.6862 1 -27.0343
    endloop
  endfacet
  facet normal 0.601815 0 0.798635
    outer loop
      vertex 50.6862 0 -27.0343
      vertex 50.3334 1 -26.7685
      vertex 50.3334 0 -26.7685
    endloop
  endfacet
  facet normal 0.601815 0 0.798636
    outer loop
      vertex 52.5848 1 -28.465
      vertex 78.8857 0 -48.2842
      vertex 78.8857 1 -48.2842
    endloop
  endfacet
  facet normal 0.601815 0 0.798636
    outer loop
      vertex 78.8857 0 -48.2842
      vertex 52.5848 1 -28.465
      vertex 52.5848 0 -28.465
    endloop
  endfacet
  facet normal -0.601815 0 -0.798636
    outer loop
      vertex 50.4806 0 -29.3837
      vertex 78.0216 1 -50.1373
      vertex 78.0216 0 -50.1373
    endloop
  endfacet
  facet normal -0.601815 0 -0.798636
    outer loop
      vertex 78.0216 1 -50.1373
      vertex 50.4806 0 -29.3837
      vertex 50.4806 1 -29.3837
    endloop
  endfacet
  facet normal -0.292372 0 0.956305
    outer loop
      vertex 51.0797 1 -26.8338
      vertex 96.0261 0 -13.0923
      vertex 96.0261 1 -13.0923
    endloop
  endfacet
  facet normal -0.292372 0 0.956305
    outer loop
      vertex 96.0261 0 -13.0923
      vertex 51.0797 1 -26.8338
      vertex 51.0797 0 -26.8338
    endloop
  endfacet
  facet normal 0.956305 -0 0.29237
    outer loop
      vertex 96.0261 0 -13.0923
      vertex 96.6108 1 -15.0049
      vertex 96.0261 1 -13.0923
    endloop
  endfacet
  facet normal 0.956305 0 0.29237
    outer loop
      vertex 96.6108 1 -15.0049
      vertex 96.0261 0 -13.0923
      vertex 96.6108 0 -15.0049
    endloop
  endfacet
  facet normal 0.292372 0 -0.956305
    outer loop
      vertex 52.5848 0 -28.465
      vertex 94.0371 1 -15.7918
      vertex 94.0371 0 -15.7918
    endloop
  endfacet
  facet normal 0.292372 0 -0.956305
    outer loop
      vertex 94.0371 1 -15.7918
      vertex 52.5848 0 -28.465
      vertex 52.5848 1 -28.465
    endloop
  endfacet
  facet normal -0.891007 0 -0.45399
    outer loop
      vertex 10.1104 0 -49.9533
      vertex 9.20244 1 -48.1713
      vertex 10.1104 1 -49.9533
    endloop
  endfacet
  facet normal -0.891007 -0 -0.45399
    outer loop
      vertex 9.20244 1 -48.1713
      vertex 10.1104 0 -49.9533
      vertex 9.20244 0 -48.1713
    endloop
  endfacet
  facet normal -0.453991 0 0.891007
    outer loop
      vertex 9.20244 1 -48.1713
      vertex 48.568 0 -28.1136
      vertex 48.568 1 -28.1136
    endloop
  endfacet
  facet normal -0.453991 0 0.891007
    outer loop
      vertex 48.568 0 -28.1136
      vertex 9.20244 1 -48.1713
      vertex 9.20244 0 -48.1713
    endloop
  endfacet
  facet normal -0.453992 0 0.891006
    outer loop
      vertex 50.6862 1 -27.0343
      vertex 51.0797 0 -26.8338
      vertex 51.0797 1 -26.8338
    endloop
  endfacet
  facet normal -0.453992 0 0.891006
    outer loop
      vertex 51.0797 0 -26.8338
      vertex 50.6862 1 -27.0343
      vertex 50.6862 0 -27.0343
    endloop
  endfacet
  facet normal 0.453991 0 -0.891007
    outer loop
      vertex 10.1104 0 -49.9533
      vertex 50.4806 1 -29.3837
      vertex 50.4806 0 -29.3837
    endloop
  endfacet
  facet normal 0.453991 0 -0.891007
    outer loop
      vertex 50.4806 1 -29.3837
      vertex 10.1104 0 -49.9533
      vertex 10.1104 1 -49.9533
    endloop
  endfacet
  facet normal -0.906308 0 0.422619
    outer loop
      vertex 74.9351 0 -56.7561
      vertex 78.0216 1 -50.1373
      vertex 74.9351 1 -56.7561
    endloop
  endfacet
  facet normal -0.906308 0 0.422619
    outer loop
      vertex 78.0216 1 -50.1373
      vertex 74.9351 0 -56.7561
      vertex 78.0216 0 -50.1373
    endloop
  endfacet
  facet normal -0.906308 0 0.422618
    outer loop
      vertex 78.8857 0 -48.2842
      vertex 94.0371 1 -15.7918
      vertex 78.8857 1 -48.2842
    endloop
  endfacet
  facet normal -0.906308 0 0.422618
    outer loop
      vertex 94.0371 1 -15.7918
      vertex 78.8857 0 -48.2842
      vertex 94.0371 0 -15.7918
    endloop
  endfacet
  facet normal -0.422619 0 -0.906307
    outer loop
      vertex 74.9351 0 -56.7561
      vertex 76.7477 1 -57.6014
      vertex 76.7477 0 -57.6014
    endloop
  endfacet
  facet normal -0.422619 0 -0.906307
    outer loop
      vertex 76.7477 1 -57.6014
      vertex 74.9351 0 -56.7561
      vertex 74.9351 1 -56.7561
    endloop
  endfacet
  facet normal 0.906308 0 -0.422618
    outer loop
      vertex 96.6108 0 -15.0049
      vertex 76.7477 1 -57.6014
      vertex 96.6108 1 -15.0049
    endloop
  endfacet
  facet normal 0.906308 0 -0.422618
    outer loop
      vertex 76.7477 1 -57.6014
      vertex 96.6108 0 -15.0049
      vertex 76.7477 0 -57.6014
    endloop
  endfacet
  facet normal -0.292372 0 0.956305
    outer loop
      vertex 50.9754 41 -23.7286
      vertex 95.1489 40 -10.2234
      vertex 95.1489 41 -10.2234
    endloop
  endfacet
  facet normal -0.292372 0 0.956305
    outer loop
      vertex 95.1489 40 -10.2234
      vertex 50.9754 41 -23.7286
      vertex 50.9754 40 -23.7286
    endloop
  endfacet
  facet normal 0.292372 0 -0.956305
    outer loop
      vertex 50.7874 40 -25.8775
      vertex 95.7337 41 -12.136
      vertex 95.7337 40 -12.136
    endloop
  endfacet
  facet normal 0.292372 0 -0.956305
    outer loop
      vertex 95.7337 41 -12.136
      vertex 50.7874 40 -25.8775
      vertex 50.7874 41 -25.8775
    endloop
  endfacet
  facet normal 0 1 0
    outer loop
      vertex 95.7337 41 -12.136
      vertex 50.9754 41 -23.7286
      vertex 95.1489 41 -10.2234
    endloop
  endfacet
  facet normal -0 1 0
    outer loop
      vertex 50.9754 41 -23.7286
      vertex 95.7337 41 -12.136
      vertex 50.7874 41 -25.8775
    endloop
  endfacet
  facet normal 0 1 0
    outer loop
      vertex 1.46985 41 1.49573
      vertex -15.4926 41 29.1373
      vertex -13.7267 41 30.0762
    endloop
  endfacet
  facet normal 0 1 0
    outer loop
      vertex 1.46985 41 1.49573
      vertex 0 41 0
      vertex -15.4926 41 29.1373
    endloop
  endfacet
  facet normal 0 1 0
    outer loop
      vertex 50.9754 41 -23.7286
      vertex 0 41 0
      vertex 1.46985 41 1.49573
    endloop
  endfacet
  facet normal 0 1 0
    outer loop
      vertex 0 41 0
      vertex 50.9754 41 -23.7286
      vertex 50.7874 41 -25.8775
    endloop
  endfacet
  facet normal 0.882948 -0 0.469472
    outer loop
      vertex -13.7267 40 30.0762
      vertex 1.46985 41 1.49573
      vertex -13.7267 41 30.0762
    endloop
  endfacet
  facet normal 0.882948 0 0.469472
    outer loop
      vertex 1.46985 41 1.49573
      vertex -13.7267 40 30.0762
      vertex 1.46985 40 1.49573
    endloop
  endfacet
  facet normal -0.882948 0 -0.469472
    outer loop
      vertex -15.0231 40 28.2543
      vertex 0 41 0
      vertex 0 40 0
    endloop
  endfacet
  facet normal -0.882948 -1.68906e-07 -0.469472
    outer loop
      vertex 0 41 0
      vertex -15.0231 40 28.2543
      vertex -15.4926 41 29.1373
    endloop
  endfacet
  facet normal -0.882948 -0 -0.469472
    outer loop
      vertex -15.4926 41 29.1373
      vertex -15.0231 40 28.2543
      vertex -15.4926 40 29.1373
    endloop
  endfacet
  facet normal -0.891007 0 0.45399
    outer loop
      vertex -1.36197 40 -2.67302
      vertex -0.45399 41 -0.891007
      vertex -1.36197 41 -2.67302
    endloop
  endfacet
  facet normal -0.891007 0 0.45399
    outer loop
      vertex -0.45399 41 -0.891007
      vertex -1.36197 40 -2.67302
      vertex -0.45399 40 -0.891007
    endloop
  endfacet
  facet normal 0.45399 0 0.891007
    outer loop
      vertex -0.45399 41 -0.891007
      vertex 50.3334 40 -26.7685
      vertex 50.3334 41 -26.7685
    endloop
  endfacet
  facet normal 0.45399 0 0.891007
    outer loop
      vertex 50.3334 40 -26.7685
      vertex -0.45399 41 -0.891007
      vertex -0.45399 40 -0.891007
    endloop
  endfacet
  facet normal -0.45399 0 -0.891007
    outer loop
      vertex -1.36197 40 -2.67302
      vertex 48.568 41 -28.1136
      vertex 48.568 40 -28.1136
    endloop
  endfacet
  facet normal -0.45399 0 -0.891007
    outer loop
      vertex 48.568 41 -28.1136
      vertex -1.36197 40 -2.67302
      vertex -1.36197 41 -2.67302
    endloop
  endfacet
  facet normal 0 -1 0
    outer loop
      vertex 48.568 40 -28.1136
      vertex -0.45399 40 -0.891007
      vertex -1.36197 40 -2.67302
    endloop
  endfacet
  facet normal 0 -1 0
    outer loop
      vertex -0.45399 40 -0.891007
      vertex 48.568 40 -28.1136
      vertex 50.3334 40 -26.7685
    endloop
  endfacet
  facet normal 0 -1 -0
    outer loop
      vertex 50.3334 40 -26.7685
      vertex 48.568 40 -28.1136
      vertex 50.6862 40 -27.0343
    endloop
  endfacet
  facet normal 0 -1 -0
    outer loop
      vertex 96.0261 40 -13.0923
      vertex 94.0371 40 -15.7918
      vertex 96.6108 40 -15.0049
    endloop
  endfacet
  facet normal 0 -1 0
    outer loop
      vertex 51.0797 40 -26.8338
      vertex 94.0371 40 -15.7918
      vertex 96.0261 40 -13.0923
    endloop
  endfacet
  facet normal 0 -1 0
    outer loop
      vertex 52.5848 40 -28.465
      vertex 51.0797 40 -26.8338
      vertex 50.6862 40 -27.0343
    endloop
  endfacet
  facet normal 0 -1 0
    outer loop
      vertex 50.4806 40 -29.3837
      vertex 50.6862 40 -27.0343
      vertex 48.568 40 -28.1136
    endloop
  endfacet
  facet normal 0 -1 0
    outer loop
      vertex 51.0797 40 -26.8338
      vertex 52.5848 40 -28.465
      vertex 94.0371 40 -15.7918
    endloop
  endfacet
  facet normal 0 -1 -0
    outer loop
      vertex 50.6862 40 -27.0343
      vertex 50.4806 40 -29.3837
      vertex 52.5848 40 -28.465
    endloop
  endfacet
  facet normal 0 -1 0
    outer loop
      vertex 10.1104 40 -49.9533
      vertex 48.568 40 -28.1136
      vertex 9.20244 40 -48.1713
    endloop
  endfacet
  facet normal 0 -1 -0
    outer loop
      vertex 48.568 40 -28.1136
      vertex 10.1104 40 -49.9533
      vertex 50.4806 40 -29.3837
    endloop
  endfacet
  facet normal 0 -1 0
    outer loop
      vertex 78.8857 40 -48.2842
      vertex 96.6108 40 -15.0049
      vertex 94.0371 40 -15.7918
    endloop
  endfacet
  facet normal 0 -1 0
    outer loop
      vertex 76.7477 40 -57.6014
      vertex 78.8857 40 -48.2842
      vertex 78.0216 40 -50.1373
    endloop
  endfacet
  facet normal 0 -1 0
    outer loop
      vertex 76.7477 40 -57.6014
      vertex 78.0216 40 -50.1373
      vertex 74.9351 40 -56.7561
    endloop
  endfacet
  facet normal 0 -1 -0
    outer loop
      vertex 78.8857 40 -48.2842
      vertex 76.7477 40 -57.6014
      vertex 96.6108 40 -15.0049
    endloop
  endfacet
  facet normal 0 -1 0
    outer loop
      vertex 78.0216 40 -50.1373
      vertex 52.5848 40 -28.465
      vertex 50.4806 40 -29.3837
    endloop
  endfacet
  facet normal 0 -1 0
    outer loop
      vertex 52.5848 40 -28.465
      vertex 78.0216 40 -50.1373
      vertex 78.8857 40 -48.2842
    endloop
  endfacet
  facet normal 0 1 -0
    outer loop
      vertex 78.0216 41 -50.1373
      vertex 52.5848 41 -28.465
      vertex 78.8857 41 -48.2842
    endloop
  endfacet
  facet normal 0 1 0
    outer loop
      vertex 52.5848 41 -28.465
      vertex 78.0216 41 -50.1373
      vertex 50.4806 41 -29.3837
    endloop
  endfacet
  facet normal 0 1 0
    outer loop
      vertex 96.6108 41 -15.0049
      vertex 78.8857 41 -48.2842
      vertex 94.0371 41 -15.7918
    endloop
  endfacet
  facet normal 0 1 0
    outer loop
      vertex 76.7477 41 -57.6014
      vertex 78.8857 41 -48.2842
      vertex 96.6108 41 -15.0049
    endloop
  endfacet
  facet normal 0 1 0
    outer loop
      vertex 78.8857 41 -48.2842
      vertex 76.7477 41 -57.6014
      vertex 78.0216 41 -50.1373
    endloop
  endfacet
  facet normal 0 1 0
    outer loop
      vertex 78.0216 41 -50.1373
      vertex 76.7477 41 -57.6014
      vertex 74.9351 41 -56.7561
    endloop
  endfacet
  facet normal 0 1 0
    outer loop
      vertex 94.0371 41 -15.7918
      vertex 96.0261 41 -13.0923
      vertex 96.6108 41 -15.0049
    endloop
  endfacet
  facet normal 0 1 -0
    outer loop
      vertex 94.0371 41 -15.7918
      vertex 51.0797 41 -26.8338
      vertex 96.0261 41 -13.0923
    endloop
  endfacet
  facet normal 0 1 -0
    outer loop
      vertex 52.5848 41 -28.465
      vertex 51.0797 41 -26.8338
      vertex 94.0371 41 -15.7918
    endloop
  endfacet
  facet normal 0 1 0
    outer loop
      vertex 51.0797 41 -26.8338
      vertex 52.5848 41 -28.465
      vertex 50.6862 41 -27.0343
    endloop
  endfacet
  facet normal 0 1 0
    outer loop
      vertex 50.4806 41 -29.3837
      vertex 50.6862 41 -27.0343
      vertex 52.5848 41 -28.465
    endloop
  endfacet
  facet normal 0 1 0
    outer loop
      vertex 50.6862 41 -27.0343
      vertex 50.4806 41 -29.3837
      vertex 48.568 41 -28.1136
    endloop
  endfacet
  facet normal 0 1 0
    outer loop
      vertex 10.1104 41 -49.9533
      vertex 48.568 41 -28.1136
      vertex 50.4806 41 -29.3837
    endloop
  endfacet
  facet normal 0 1 0
    outer loop
      vertex 48.568 41 -28.1136
      vertex 10.1104 41 -49.9533
      vertex 9.20244 41 -48.1713
    endloop
  endfacet
  facet normal 0 1 -0
    outer loop
      vertex 48.568 41 -28.1136
      vertex -0.45399 41 -0.891007
      vertex 50.3334 41 -26.7685
    endloop
  endfacet
  facet normal 0 1 0
    outer loop
      vertex 48.568 41 -28.1136
      vertex 50.3334 41 -26.7685
      vertex 50.6862 41 -27.0343
    endloop
  endfacet
  facet normal 0 1 0
    outer loop
      vertex -0.45399 41 -0.891007
      vertex 48.568 41 -28.1136
      vertex -1.36197 41 -2.67302
    endloop
  endfacet
  facet normal 0.601815 0 0.798635
    outer loop
      vertex 50.3334 41 -26.7685
      vertex 50.6862 40 -27.0343
      vertex 50.6862 41 -27.0343
    endloop
  endfacet
  facet normal 0.601815 0 0.798635
    outer loop
      vertex 50.6862 40 -27.0343
      vertex 50.3334 41 -26.7685
      vertex 50.3334 40 -26.7685
    endloop
  endfacet
  facet normal 0.601815 0 0.798636
    outer loop
      vertex 52.5848 41 -28.465
      vertex 78.8857 40 -48.2842
      vertex 78.8857 41 -48.2842
    endloop
  endfacet
  facet normal 0.601815 0 0.798636
    outer loop
      vertex 78.8857 40 -48.2842
      vertex 52.5848 41 -28.465
      vertex 52.5848 40 -28.465
    endloop
  endfacet
  facet normal -0.601815 0 -0.798636
    outer loop
      vertex 50.4806 40 -29.3837
      vertex 78.0216 41 -50.1373
      vertex 78.0216 40 -50.1373
    endloop
  endfacet
  facet normal -0.601815 0 -0.798636
    outer loop
      vertex 78.0216 41 -50.1373
      vertex 50.4806 40 -29.3837
      vertex 50.4806 41 -29.3837
    endloop
  endfacet
  facet normal -0.292372 0 0.956305
    outer loop
      vertex 51.0797 41 -26.8338
      vertex 96.0261 40 -13.0923
      vertex 96.0261 41 -13.0923
    endloop
  endfacet
  facet normal -0.292372 0 0.956305
    outer loop
      vertex 96.0261 40 -13.0923
      vertex 51.0797 41 -26.8338
      vertex 51.0797 40 -26.8338
    endloop
  endfacet
  facet normal 0.956305 -0 0.29237
    outer loop
      vertex 96.0261 40 -13.0923
      vertex 96.6108 41 -15.0049
      vertex 96.0261 41 -13.0923
    endloop
  endfacet
  facet normal 0.956305 0 0.29237
    outer loop
      vertex 96.6108 41 -15.0049
      vertex 96.0261 40 -13.0923
      vertex 96.6108 40 -15.0049
    endloop
  endfacet
  facet normal 0.292372 0 -0.956305
    outer loop
      vertex 52.5848 40 -28.465
      vertex 94.0371 41 -15.7918
      vertex 94.0371 40 -15.7918
    endloop
  endfacet
  facet normal 0.292372 0 -0.956305
    outer loop
      vertex 94.0371 41 -15.7918
      vertex 52.5848 40 -28.465
      vertex 52.5848 41 -28.465
    endloop
  endfacet
  facet normal -0.891007 0 -0.45399
    outer loop
      vertex 10.1104 40 -49.9533
      vertex 9.20244 41 -48.1713
      vertex 10.1104 41 -49.9533
    endloop
  endfacet
  facet normal -0.891007 -0 -0.45399
    outer loop
      vertex 9.20244 41 -48.1713
      vertex 10.1104 40 -49.9533
      vertex 9.20244 40 -48.1713
    endloop
  endfacet
  facet normal -0.453991 0 0.891007
    outer loop
      vertex 9.20244 41 -48.1713
      vertex 48.568 40 -28.1136
      vertex 48.568 41 -28.1136
    endloop
  endfacet
  facet normal -0.453991 0 0.891007
    outer loop
      vertex 48.568 40 -28.1136
      vertex 9.20244 41 -48.1713
      vertex 9.20244 40 -48.1713
    endloop
  endfacet
  facet normal -0.453992 0 0.891006
    outer loop
      vertex 50.6862 41 -27.0343
      vertex 51.0797 40 -26.8338
      vertex 51.0797 41 -26.8338
    endloop
  endfacet
  facet normal -0.453992 0 0.891006
    outer loop
      vertex 51.0797 40 -26.8338
      vertex 50.6862 41 -27.0343
      vertex 50.6862 40 -27.0343
    endloop
  endfacet
  facet normal 0.453991 0 -0.891007
    outer loop
      vertex 10.1104 40 -49.9533
      vertex 50.4806 41 -29.3837
      vertex 50.4806 40 -29.3837
    endloop
  endfacet
  facet normal 0.453991 0 -0.891007
    outer loop
      vertex 50.4806 41 -29.3837
      vertex 10.1104 40 -49.9533
      vertex 10.1104 41 -49.9533
    endloop
  endfacet
  facet normal -0.906308 0 0.422619
    outer loop
      vertex 74.9351 40 -56.7561
      vertex 78.0216 41 -50.1373
      vertex 74.9351 41 -56.7561
    endloop
  endfacet
  facet normal -0.906308 0 0.422619
    outer loop
      vertex 78.0216 41 -50.1373
      vertex 74.9351 40 -56.7561
      vertex 78.0216 40 -50.1373
    endloop
  endfacet
  facet normal -0.906308 0 0.422618
    outer loop
      vertex 78.8857 40 -48.2842
      vertex 94.0371 41 -15.7918
      vertex 78.8857 41 -48.2842
    endloop
  endfacet
  facet normal -0.906308 0 0.422618
    outer loop
      vertex 94.0371 41 -15.7918
      vertex 78.8857 40 -48.2842
      vertex 94.0371 40 -15.7918
    endloop
  endfacet
  facet normal -0.422619 0 -0.906307
    outer loop
      vertex 74.9351 40 -56.7561
      vertex 76.7477 41 -57.6014
      vertex 76.7477 40 -57.6014
    endloop
  endfacet
  facet normal -0.422619 0 -0.906307
    outer loop
      vertex 76.7477 41 -57.6014
      vertex 74.9351 40 -56.7561
      vertex 74.9351 41 -56.7561
    endloop
  endfacet
  facet normal 0.906308 0 -0.422618
    outer loop
      vertex 96.6108 40 -15.0049
      vertex 76.7477 41 -57.6014
      vertex 96.6108 41 -15.0049
    endloop
  endfacet
  facet normal 0.906308 0 -0.422618
    outer loop
      vertex 76.7477 41 -57.6014
      vertex 96.6108 40 -15.0049
      vertex 76.7477 40 -57.6014
    endloop
  endfacet
endsolid OpenSCAD_Model
